<svg width="696" height="140" viewBox="0 0 696 140" fill="none" xmlns="http://www.w3.org/2000/svg">
<g filter="url(#filter0_d_8213_280)">
<path d="M562.083 0.109375H588.453C592.936 0.109375 598.481 0.109375 605.088 0.109375C611.813 0.109375 618.715 0.109375 625.794 0.109375C632.873 0.109375 640.188 0.109375 647.739 0.109375C655.29 0.109375 662.664 0.109375 669.861 0.109375H684.196H688.266H689.682V26.4787H688.266H684.196H669.861C662.664 26.4787 655.29 26.4787 647.739 26.4787C640.188 26.4787 632.873 26.4787 625.794 26.4787H588.453C588.453 30.962 588.453 36.5072 588.453 43.1143C588.453 49.6034 588.453 56.3874 588.453 63.4664C588.453 70.6634 588.453 77.5655 588.453 84.1725C588.453 90.7796 588.453 96.2658 588.453 100.631C593.054 100.631 598.658 100.631 605.265 100.631C611.99 100.631 618.951 100.631 626.148 100.631C633.109 100.631 640.365 100.631 647.916 100.631C655.467 100.631 662.9 100.631 670.215 100.631H684.727H688.797H690.213V127H688.797H684.727H670.215C662.9 127 655.408 127 647.739 127C640.188 127 632.932 127 625.971 127C618.892 127 611.99 127 605.265 127C598.658 127 593.054 127 588.453 127H562.083H561.906V100.631H562.083C562.083 96.2658 562.083 90.7796 562.083 84.1725C562.083 77.5655 562.083 70.6634 562.083 63.4664C562.083 56.7414 562.083 49.6034 562.083 42.0525C562.083 34.5015 562.083 27.1276 562.083 19.9306V15.3292L561.906 0.109375H562.083ZM638.536 50.3703C638.654 50.3703 638.831 50.3703 639.067 50.3703C639.303 50.3703 639.598 50.3703 639.952 50.3703C641.014 50.3703 642.253 50.3703 643.669 50.3703C646.972 50.3703 650.63 50.4293 654.641 50.5473C658.653 50.5473 662.31 50.5473 665.614 50.5473C667.029 50.5473 668.268 50.5473 669.33 50.5473C670.038 50.5473 670.51 50.5473 670.746 50.5473L670.569 76.9165C670.451 76.9165 669.979 76.9165 669.153 76.9165C668.209 76.9165 667.029 76.9165 665.614 76.9165C662.192 76.9165 658.476 76.9165 654.464 76.9165C650.453 76.7986 646.795 76.7396 643.492 76.7396C642.076 76.7396 640.896 76.7396 639.952 76.7396C639.598 76.7396 639.244 76.7396 638.89 76.7396C638.772 76.7396 638.654 76.7396 638.536 76.7396H637.121L611.99 50.1933C622.137 50.3113 630.986 50.3703 638.536 50.3703Z" fill="#0A0A0A"/>
<path d="M457.855 0.109375H458.917H461.925H472.367C477.676 0.109375 483.103 0.109375 488.649 0.109375C494.194 0.109375 499.503 0.109375 504.576 0.109375C509.65 0.109375 514.9 0.109375 520.327 0.109375C525.872 0.109375 531.3 0.109375 536.609 0.109375H547.227H550.236H551.121V26.4787H550.236H547.227H536.609C531.3 26.4787 525.872 26.4787 520.327 26.4787C514.9 26.4787 509.65 26.4787 504.576 26.4787C492.896 26.4787 482.159 26.4787 472.367 26.4787C468.827 26.4787 464.344 26.4787 458.917 26.4787C458.681 26.4787 458.445 26.4787 458.209 26.4787C453.725 26.7146 451.425 29.4872 451.307 34.7965V35.3274V42.0525V62.7585C451.307 66.652 451.307 70.3685 451.307 73.908C451.307 77.3295 451.307 80.515 451.307 83.4646V90.3666V92.1364C451.307 92.3724 451.307 92.6673 451.307 93.0213C451.307 95.9709 451.72 97.9766 452.546 99.0384C453.372 100.1 454.787 100.631 456.793 100.631H457.147H458.74H469.712C475.139 100.631 480.744 100.631 486.525 100.631C492.306 100.631 497.792 100.631 502.984 100.631H525.636L551.475 127H550.236H547.227H536.255C530.828 127 525.223 127 519.442 127C513.779 127 508.293 127 502.984 127C497.792 127 492.306 127 486.525 127C480.744 127 475.139 127 469.712 127H458.74C457.796 127 456.852 127 455.908 127C455.79 127 455.613 127 455.377 127C449.124 127 443.992 126.293 439.98 124.877C435.969 123.461 432.842 121.278 430.601 118.329C428.477 115.261 427.002 111.781 426.176 107.887C425.35 103.994 424.938 99.0974 424.938 93.1982C424.938 93.0803 424.938 92.9623 424.938 92.8443V92.1364V90.3666V83.4646V62.7585V42.0525V35.3274V33.9116V33.3807V32.6728C425.055 20.6385 427.71 12.2027 432.901 7.36534C438.211 2.52803 446.528 0.109375 457.855 0.109375Z" fill="#0A0A0A"/>
<path d="M350.331 86.8271L363.073 113.019H305.733C301.25 122.222 299.008 126.883 299.008 127H269.453C272.403 121.101 274.054 117.798 274.408 117.09L276.355 113.019L283.257 99.0384L304.14 56.3874L325.023 13.7364L331.748 0.109375H331.925H351.57C353.339 3.76685 355.581 8.30921 358.295 13.7364L379.355 56.3874L400.415 99.0384L407.317 113.019C408.143 114.671 408.791 116.028 409.263 117.09C409.617 117.798 411.328 121.101 414.396 127H384.664C381.95 121.573 379.296 116.146 376.7 110.719L355.64 68.0678L341.659 39.7518L327.855 68.0678L318.652 86.8271C329.153 86.8271 339.712 86.8271 350.331 86.8271Z" fill="#0A0A0A"/>
<path d="M181.041 50.0163C208.413 50.1343 225.579 50.1933 232.54 50.1933C237.378 50.1933 240.858 49.4854 242.982 48.0696C245.224 46.5358 246.286 43.8222 246.168 39.9288L245.814 36.9202C245.814 33.1447 244.752 30.6081 242.628 29.3103C240.504 28.0124 236.965 27.4225 232.01 27.5405C229.65 27.6585 221.981 27.7175 209.003 27.7175C196.143 27.5995 189.536 27.5405 189.182 27.5405C182.457 27.5405 176.675 27.5995 171.838 27.7175C171.838 31.7289 171.838 36.9792 171.838 43.4683C171.838 49.8394 171.838 56.5054 171.838 63.4664C171.838 70.4275 171.838 77.6834 171.838 85.2344C171.838 92.6673 171.838 99.9823 171.838 107.179V121.514V125.585V127H145.469V125.585V121.514V107.179C145.469 99.9823 145.469 92.6673 145.469 85.2344C145.469 77.6834 145.469 70.4275 145.469 63.4664C145.469 56.7414 145.469 49.6034 145.469 42.0525C145.469 34.5015 145.469 27.1276 145.469 19.9306V5.41862V1.52517V0.109375H171.838C204.755 0.109375 227.054 0.168366 238.735 0.286348C261.505 0.522312 273.127 8.84014 273.599 25.2398C273.835 34.3245 274.012 42.5244 274.13 49.8394C274.13 58.4522 270.944 64.8232 264.573 68.9527C258.202 73.0821 250.002 75.1468 239.973 75.1468L203.163 75.8547L181.041 50.0163Z" fill="#0A0A0A"/>
<path d="M65.7055 75.8535C54.3791 75.7355 46.5922 75.6765 42.3448 75.6765C35.9737 75.6765 30.1925 74.8506 25.0012 73.1989C19.81 71.4291 15.4446 68.5975 11.9051 64.7041C8.48355 60.6926 6.77279 55.7373 6.77279 49.8382C6.89077 42.5232 7.06775 34.3234 7.30371 25.2386C7.77565 8.83895 19.397 0.52112 42.1678 0.285156C42.7577 0.285156 73.5514 0.285156 134.549 0.285156L134.726 28.4242C88.4763 27.9523 59.8653 27.6573 48.8929 27.5393C44.0555 27.4213 40.516 28.0112 38.2743 29.3091C36.1506 30.6069 35.0888 33.1435 35.0888 36.919L34.7348 39.9276C34.6169 43.939 35.7377 47.0656 38.0974 49.3072C40.575 51.4309 44.1145 52.4928 48.7159 52.4928C52.9633 52.4928 62.166 52.4928 76.324 52.4928C88.5943 52.3748 96.7941 52.3158 100.924 52.3158C110.952 52.5518 119.152 54.7345 125.523 58.8639C131.894 62.9933 134.962 69.3644 134.726 77.9772C134.608 85.4102 134.372 93.669 134.018 102.754C133.428 118.799 121.394 126.881 97.9149 126.999C93.4316 126.999 87.2374 126.999 79.3326 126.999C71.4277 126.999 63.2868 126.999 54.91 126.999C46.6512 126.999 38.8053 126.999 31.3723 126.999C24.0574 126.999 17.8632 126.999 12.7899 126.999H5.71094L18.4531 100.453C55.028 100.571 78.8606 100.748 89.9511 100.984C100.806 101.102 106.292 97.6804 106.41 90.7194L106.764 87.7108C106.882 83.6994 105.82 80.8088 103.578 79.0391C101.336 77.1513 97.856 76.1485 93.1366 76.0305C83.8159 76.0305 74.6722 75.9715 65.7055 75.8535Z" fill="#0A0A0A"/>
</g>
<defs>
<filter id="filter0_d_8213_280" x="0.710938" y="0.109375" width="694.5" height="136.891" filterUnits="userSpaceOnUse" color-interpolation-filters="sRGB">
<feFlood flood-opacity="0" result="BackgroundImageFix"/>
<feColorMatrix in="SourceAlpha" type="matrix" values="0 0 0 0 0 0 0 0 0 0 0 0 0 0 0 0 0 0 127 0" result="hardAlpha"/>
<feOffset dy="5"/>
<feGaussianBlur stdDeviation="2.5"/>
<feComposite in2="hardAlpha" operator="out"/>
<feColorMatrix type="matrix" values="0 0 0 0 0.0392157 0 0 0 0 0.0392157 0 0 0 0 0.0392157 0 0 0 0.25 0"/>
<feBlend mode="normal" in2="BackgroundImageFix" result="effect1_dropShadow_8213_280"/>
<feBlend mode="normal" in="SourceGraphic" in2="effect1_dropShadow_8213_280" result="shape"/>
</filter>
</defs>
</svg>
