<svg width="666" height="665" viewBox="0 0 666 665" fill="none" xmlns="http://www.w3.org/2000/svg">
  <g clip-path="url(#clip0_107_66)">
    <path fill-rule="evenodd" clip-rule="evenodd" d="M123 332.5C123 216.245 217.024 122 333 122C448.979 122 543 216.245 543 332.5C543 448.752 448.979 543 333 543L123 332.5Z" fill="#0A0A0A"/>
    <path fill-rule="evenodd" clip-rule="evenodd" d="M133.243 132.742C243.565 22.4193 422.434 22.4191 532.757 132.742C541.363 141.348 549.298 150.371 556.561 159.746V86.3675C426.063 -32.3521 223.952 -28.6789 97.8872 97.3871C-31.9624 227.236 -31.9624 437.763 97.8872 567.613C223.952 693.679 426.063 697.352 556.561 578.632V505.254C549.298 514.629 541.363 523.652 532.757 532.258C422.434 642.581 243.565 642.581 133.243 532.258C22.9192 421.934 22.9192 243.066 133.243 132.742ZM601.976 419.056V528.051C686.675 411.851 686.675 253.149 601.976 136.949V245.944C620.008 302.138 620.008 362.862 601.976 419.056Z" fill="#0A0A0A"/>
    <path d="M122.523 35.5234C143.221 14.8257 176.779 14.8255 197.477 35.5234C218.174 56.2212 218.174 89.7788 197.477 110.477C176.779 131.174 143.221 131.174 122.523 110.477C101.826 89.7788 101.826 56.2212 122.523 35.5234Z" fill="#0A0A0A" stroke="#0A0A0A" stroke-width="40"/>
  </g>
  <defs>
    <clipPath id="clip0_107_66">
      <rect width="666" height="665" fill="white"/>
    </clipPath>
  </defs>
</svg>
