<svg width="95" height="78" viewBox="0 0 95 78" fill="none" xmlns="http://www.w3.org/2000/svg">
  <path d="M24.5584 0C34.4679 0 41.6847 2.18487 46.2086 6.55462C50.8043 10.8515 53.1022 16.7871 53.1022 24.3613C53.1022 27.7843 52.5995 31.0616 51.5942 34.1933C50.5889 37.2521 48.9014 40.0196 46.5317 42.4958C44.2339 44.8992 41.182 46.7927 37.3762 48.1765C33.5703 49.5602 28.8669 50.2521 23.2659 50.2521H16.2646V78H0V0H24.5584ZM23.6967 13.5462H16.2646V36.7059H21.6502C24.7379 36.7059 27.3948 36.3053 29.6209 35.5042C31.8469 34.7031 33.5703 33.4286 34.7911 31.6807C36.0118 29.9328 36.6222 27.6751 36.6222 24.9076C36.6222 21.0476 35.581 18.2073 33.4985 16.3866C31.4161 14.493 28.1488 13.5462 23.6967 13.5462Z" fill="#222222"/>
  <g clip-path="url(#clip0_1191_20284)">
    <path fill-rule="evenodd" clip-rule="evenodd" d="M60.7612 18.0493H73.0112L60.7612 63.7113V18.0493ZM76.949 18.0493H96.6749L80.7017 77.5756H60.9759L76.949 18.0493ZM100.613 18.0493H119.961L103.988 77.5679H84.6395L100.613 18.0493ZM119.991 32.6035V77.5679H107.926L119.991 32.6035Z" fill="#FBC200"/>
  </g>
  <defs>
    <clipPath id="clip0_1191_20284">
      <rect x="60.7708" y="17.7892" width="59.2293" height="59.5263" rx="29.6147" fill="white"/>
    </clipPath>
  </defs>
</svg>
