<svg width="133" height="42" viewBox="0 0 133 42" fill="none" xmlns="http://www.w3.org/2000/svg">
  <path d="M12.0018 4C16.8446 4 20.3714 5.06443 22.5823 7.19328C24.8282 9.28665 25.9512 12.1783 25.9512 15.8683C25.9512 17.5359 25.7056 19.1326 25.2143 20.6583C24.723 22.1485 23.8983 23.4967 22.7402 24.7031C21.6172 25.8739 20.1258 26.7965 18.2659 27.4706C16.4059 28.1447 14.1074 28.4818 11.3701 28.4818H7.94855V42H0V4H12.0018ZM11.5807 10.5994H7.94855V21.8824H10.5805C12.0895 21.8824 13.388 21.6872 14.4758 21.2969C15.5637 20.9066 16.4059 20.2857 17.0025 19.4342C17.5991 18.5826 17.8974 17.4827 17.8974 16.1345C17.8974 14.254 17.3885 12.8702 16.3709 11.9832C15.3532 11.0607 13.7564 10.5994 11.5807 10.5994Z" fill="#222222"/>
  <g clip-path="url(#clip0_1191_20006)">
    <path fill-rule="evenodd" clip-rule="evenodd" d="M29.939 13.1268H35.9256L29.939 35.3723V13.1268ZM37.85 13.1268H47.4901L39.684 42.1268H30.0439L37.85 13.1268ZM49.4145 13.1268H58.8701L51.064 42.123H41.6084L49.4145 13.1268ZM58.8846 20.2173V42.123H52.9884L58.8846 20.2173Z" fill="#FBC200"/>
  </g>
  <path d="M127.812 35.5091C128.732 35.5091 129.615 35.4182 130.461 35.2364C131.307 35.0546 132.154 34.8364 133 34.5818V40.6364C132.117 41 131.013 41.3091 129.688 41.5636C128.401 41.8546 126.984 42 125.439 42C123.636 42 122.017 41.7091 120.582 41.1273C119.183 40.5455 118.061 39.5455 117.215 38.1273C116.405 36.6727 116.001 34.6727 116.001 32.1273V17.7818H112.082V14.3455L116.608 11.6182L118.981 5.34546H124.224V11.6727H132.669V17.7818H124.224V32.1273C124.224 33.2546 124.556 34.1091 125.218 34.6909C125.88 35.2364 126.745 35.5091 127.812 35.5091Z" fill="#222222"/>
  <path d="M96.6709 11.1273C99.9089 11.1273 102.503 12 104.453 13.7454C106.403 15.4545 107.378 18.2182 107.378 22.0364V41.4545H99.1546V24.0545C99.1546 21.9091 98.7682 20.3091 97.9955 19.2545C97.2228 18.1636 95.9902 17.6182 94.2976 17.6182C91.7956 17.6182 90.0846 18.4727 89.1647 20.1818C88.2449 21.8545 87.7849 24.2727 87.7849 27.4363V41.4545H79.5613V11.6727H85.8532L86.9571 15.4909H87.3986C88.0609 14.4727 88.8704 13.6545 89.8271 13.0364C90.7837 12.3818 91.8508 11.9091 93.0282 11.6182C94.2056 11.2909 95.4199 11.1273 96.6709 11.1273Z" fill="#222222"/>
  <path d="M71.6862 11.6727V41.4545H63.4625V11.6727H71.6862ZM67.6019 0C68.8162 0 69.8648 0.29091 70.7479 0.872729C71.631 1.41818 72.0725 2.45455 72.0725 3.98182C72.0725 5.47273 71.631 6.50909 70.7479 7.09091C69.8648 7.67273 68.8162 7.96364 67.6019 7.96364C66.3509 7.96364 65.2838 7.67273 64.4008 7.09091C63.5545 6.50909 63.1313 5.47273 63.1313 3.98182C63.1313 2.45455 63.5545 1.41818 64.4008 0.872729C65.2838 0.29091 66.3509 0 67.6019 0Z" fill="#222222"/>
  <defs>
    <clipPath id="clip0_1191_20006">
      <path d="M29.9436 27.5C29.9436 19.5069 36.4233 13 44.4164 13C52.4095 13 58.8892 19.5069 58.8892 27.5C58.8892 35.4931 52.4095 42 44.4164 42C36.4233 42 29.9436 35.4931 29.9436 27.5Z" fill="white"/>
    </clipPath>
  </defs>
</svg>
