<svg width="194" height="32" viewBox="0 0 194 32" fill="none" xmlns="http://www.w3.org/2000/svg">
  <path d="M164.798 2H170.618C171.607 2 172.831 2 174.289 2C175.773 2 177.297 2 178.859 2C180.422 2 182.036 2 183.703 2C185.369 2 186.997 2 188.585 2H191.749H192.647H192.96V7.81872H192.647H191.749H188.585C186.997 7.81872 185.369 7.81872 183.703 7.81872C182.036 7.81872 180.422 7.81872 178.859 7.81872H170.618C170.618 8.80801 170.618 10.0316 170.618 11.4896C170.618 12.9215 170.618 14.4184 170.618 15.9805C170.618 17.5686 170.618 19.0916 170.618 20.5496C170.618 22.0075 170.618 23.2181 170.618 24.1813C171.633 24.1813 172.87 24.1813 174.328 24.1813C175.812 24.1813 177.349 24.1813 178.937 24.1813C180.474 24.1813 182.075 24.1813 183.742 24.1813C185.408 24.1813 187.049 24.1813 188.663 24.1813H191.866H192.765H193.077V30H192.765H191.866H188.663C187.049 30 185.396 30 183.703 30C182.036 30 180.434 30 178.898 30C177.336 30 175.812 30 174.328 30C172.87 30 171.633 30 170.618 30H164.798H164.759V24.1813H164.798C164.798 23.2181 164.798 22.0075 164.798 20.5496C164.798 19.0916 164.798 17.5686 164.798 15.9805C164.798 14.4966 164.798 12.9215 164.798 11.2553C164.798 9.58903 164.798 7.9619 164.798 6.37381V5.35844L164.759 2H164.798ZM181.671 13.0907C181.697 13.0907 181.737 13.0907 181.789 13.0907C181.841 13.0907 181.906 13.0907 181.984 13.0907C182.218 13.0907 182.492 13.0907 182.804 13.0907C183.534 13.0907 184.341 13.1037 185.226 13.1298C186.111 13.1298 186.919 13.1298 187.648 13.1298C187.96 13.1298 188.234 13.1298 188.468 13.1298C188.624 13.1298 188.728 13.1298 188.781 13.1298L188.742 18.9484C188.716 18.9484 188.611 18.9484 188.429 18.9484C188.22 18.9484 187.96 18.9484 187.648 18.9484C186.893 18.9484 186.072 18.9484 185.187 18.9484C184.302 18.9224 183.494 18.9094 182.765 18.9094C182.453 18.9094 182.193 18.9094 181.984 18.9094C181.906 18.9094 181.828 18.9094 181.75 18.9094C181.724 18.9094 181.697 18.9094 181.671 18.9094H181.359L175.812 13.0516C178.052 13.0777 180.005 13.0907 181.671 13.0907Z" fill="#0A0A0A"/>
  <path d="M141.793 2H142.028H142.692H144.996C146.168 2 147.366 2 148.59 2C149.814 2 150.985 2 152.105 2C153.225 2 154.384 2 155.582 2C156.805 2 158.003 2 159.175 2H161.519H162.183H162.378V7.81872H162.183H161.519H159.175C158.003 7.81872 156.805 7.81872 155.582 7.81872C154.384 7.81872 153.225 7.81872 152.105 7.81872C149.527 7.81872 147.157 7.81872 144.996 7.81872C144.215 7.81872 143.225 7.81872 142.028 7.81872C141.976 7.81872 141.923 7.81872 141.871 7.81872C140.882 7.87079 140.374 8.48258 140.348 9.65412V9.77129V11.2553V15.8243C140.348 16.6835 140.348 17.5036 140.348 18.2846C140.348 19.0396 140.348 19.7425 140.348 20.3934V21.9164V22.3069C140.348 22.359 140.348 22.4241 140.348 22.5021C140.348 23.153 140.439 23.5956 140.622 23.8299C140.804 24.0642 141.116 24.1813 141.559 24.1813H141.637H141.989H144.41C145.608 24.1813 146.845 24.1813 148.121 24.1813C149.397 24.1813 150.608 24.1813 151.754 24.1813H156.753L162.456 30H162.183H161.519H159.097C157.899 30 156.662 30 155.386 30C154.136 30 152.926 30 151.754 30C150.608 30 149.397 30 148.121 30C146.845 30 145.608 30 144.41 30H141.989C141.78 30 141.572 30 141.364 30C141.337 30 141.298 30 141.246 30C139.866 30 138.734 29.844 137.848 29.5315C136.963 29.2191 136.273 28.7373 135.778 28.0866C135.309 27.4096 134.984 26.6417 134.801 25.7825C134.619 24.9234 134.528 23.8429 134.528 22.5412C134.528 22.5152 134.528 22.4892 134.528 22.4631V22.3069V21.9164V20.3934V15.8243V11.2553V9.77129V9.45888V9.34172V9.18551C134.554 6.53001 135.14 4.66854 136.286 3.60112C137.458 2.53371 139.293 2 141.793 2Z" fill="#0A0A0A"/>
  <path d="M118.061 21.1354L120.874 26.9149H108.218C107.229 28.9457 106.734 29.9742 106.734 30H100.211C100.862 28.6983 101.227 27.9694 101.305 27.8132L101.734 26.9149L103.257 23.8299L107.867 14.4184L112.476 5.00697L113.96 2H113.999H118.335C118.725 2.80707 119.22 3.80939 119.819 5.00697L124.467 14.4184L129.116 23.8299L130.639 26.9149C130.821 27.2794 130.964 27.5789 131.069 27.8132C131.147 27.9694 131.524 28.6983 132.202 30H125.639C125.04 28.8024 124.455 27.6049 123.881 26.4074L119.233 16.9959L116.148 10.7476L113.101 16.9959L111.07 21.1354C113.387 21.1354 115.718 21.1354 118.061 21.1354Z" fill="#0A0A0A"/>
  <path d="M80.6971 13.0126C86.7386 13.0386 90.5272 13.0516 92.0638 13.0516C93.1314 13.0516 93.8995 12.8954 94.3684 12.583C94.8632 12.2446 95.0974 11.6458 95.0716 10.7866L94.9935 10.1228C94.9935 9.28965 94.7588 8.72993 94.2899 8.44354C93.8214 8.15714 93.0402 8.02699 91.9466 8.05301C91.4255 8.07906 89.7332 8.09209 86.8689 8.09209C84.0304 8.06603 82.5723 8.05301 82.4938 8.05301C81.0098 8.05301 79.7334 8.06603 78.6662 8.09209C78.6662 8.97724 78.6662 10.1358 78.6662 11.5677C78.6662 12.9735 78.6662 14.4445 78.6662 15.9805C78.6662 17.5166 78.6662 19.1177 78.6662 20.7839C78.6662 22.4241 78.6662 24.0382 78.6662 25.6262V28.7894V29.6878V30H72.8462V29.6878V28.7894V25.6262C72.8462 24.0382 72.8462 22.4241 72.8462 20.7839C72.8462 19.1177 72.8462 17.5166 72.8462 15.9805C72.8462 14.4966 72.8462 12.9215 72.8462 11.2553C72.8462 9.58903 72.8462 7.9619 72.8462 6.37381V3.17155V2.31241V2H78.6662C85.931 2 90.8527 2.01302 93.431 2.03905C98.4566 2.09112 101.021 3.92655 101.126 7.54536C101.178 9.54999 101.217 11.3594 101.243 12.9735C101.243 14.8741 100.54 16.2799 99.1334 17.1911C97.7276 18.1024 95.9177 18.5579 93.7043 18.5579L85.5797 18.7141L80.6971 13.0126Z" fill="#0A0A0A"/>
  <path d="M55.2413 18.7139C52.7415 18.6878 51.0228 18.6748 50.0854 18.6748C48.6794 18.6748 47.4034 18.4926 46.2576 18.1281C45.1118 17.7375 44.1484 17.1127 43.3671 16.2536C42.612 15.3684 42.2344 14.275 42.2344 12.9732C42.2604 11.3591 42.2995 9.5497 42.3516 7.54503C42.4557 3.92626 45.0207 2.09083 50.0464 2.03876C50.1767 2.03876 56.9731 2.03876 70.436 2.03876L70.4751 8.24796C60.2673 8.14387 53.9526 8.07878 51.5308 8.05272C50.4631 8.02667 49.6819 8.15686 49.1871 8.44325C48.7184 8.7296 48.484 9.28936 48.484 10.1224L48.4059 10.7863C48.3799 11.6715 48.6273 12.3615 49.1481 12.8561C49.695 13.3247 50.4763 13.559 51.4917 13.559C52.4291 13.559 54.4601 13.559 57.585 13.559C60.2932 13.533 62.1031 13.52 63.0146 13.52C65.228 13.572 67.0378 14.0537 68.4437 14.9649C69.85 15.8761 70.5273 17.2819 70.4751 19.1825C70.4492 20.8227 70.397 22.645 70.3189 24.6498C70.1886 28.1903 67.5326 29.9737 62.3505 29.9997C61.3609 29.9997 59.9936 29.9997 58.2491 29.9997C56.5046 29.9997 54.7075 29.9997 52.859 29.9997C51.036 29.9997 49.3042 29.9997 47.6638 29.9997C46.0493 29.9997 44.6821 29.9997 43.5624 29.9997H42L44.8123 24.142C52.8849 24.1681 58.1451 24.2071 60.5928 24.2592C62.9887 24.2852 64.1994 23.5302 64.2252 21.9942L64.3037 21.3303C64.3296 20.4451 64.0954 19.8073 63.6002 19.4168C63.1054 19.0002 62.3373 18.7789 61.2959 18.7529C59.2387 18.7529 57.2205 18.7399 55.2413 18.7139Z" fill="#0A0A0A"/>
  <path fill-rule="evenodd" clip-rule="evenodd" d="M5.89465 16C5.89465 10.4058 10.4191 5.87067 15.9999 5.87067C21.5809 5.87067 26.1052 10.4058 26.1052 16C26.1052 21.5941 21.5809 26.1293 15.9999 26.1293L5.89465 16Z" fill="#0A0A0A"/>
  <path fill-rule="evenodd" clip-rule="evenodd" d="M6.38763 6.38758C11.6964 1.07882 20.3036 1.07881 25.6124 6.38758C26.0265 6.8017 26.4083 7.23589 26.7578 7.68702V4.15603C20.4782 -1.55679 10.7526 -1.38004 4.6863 4.68629C-1.5621 10.9347 -1.5621 21.0653 4.6863 27.3137C10.7526 33.38 20.4782 33.5568 26.7578 27.8439V24.313C26.4083 24.7641 26.0265 25.1983 25.6124 25.6124C20.3036 30.9212 11.6964 30.9212 6.38763 25.6124C1.07882 20.3036 1.07882 11.6964 6.38763 6.38758ZM28.9432 20.1651V25.41C33.0189 19.8184 33.0189 12.1816 28.9432 6.59002V11.8349C29.8109 14.539 29.8109 17.461 28.9432 20.1651Z" fill="#0A0A0A"/>
  <path d="M5.87184 1.70945C6.86783 0.713475 8.48265 0.713465 9.47864 1.70945C10.4746 2.70544 10.4746 4.32024 9.47864 5.31624C8.48265 6.31219 6.86783 6.31219 5.87184 5.31624C4.87589 4.32024 4.87589 2.70544 5.87184 1.70945Z" fill="#0A0A0A"/>
</svg>
