<svg width="617" height="144" viewBox="0 0 617 144" fill="none" xmlns="http://www.w3.org/2000/svg">
<g filter="url(#filter0_d_8215_282)">
<path d="M7.75598 40.2032C7.75598 19.4971 29.7009 2.6845 56.7781 2.6845H74.4756C87.7487 2.6845 106.685 8.17073 115.534 17.0195L92.527 34.717C88.4566 29.0538 81.0237 25.5143 74.4756 25.5143H56.7781C44.3898 25.5143 34.3022 32.0624 34.3022 40.2032C34.3022 60.3784 117.304 52.2375 117.304 96.4813C117.304 117.187 94.4738 134 66.5117 134H48.8142C35.0101 134 15.1889 128.514 5.98623 119.665L28.816 101.968C33.2404 107.631 41.5582 111.17 48.8142 111.17H66.5117C79.9618 111.17 90.7573 104.622 90.7573 96.4813C90.7573 73.8285 7.75598 84.093 7.75598 40.2032ZM161.001 25.5143V134H134.455V25.8682C134.455 13.126 145.604 2.6845 159.408 2.6845H195.157C223.119 2.6845 245.949 19.6741 245.949 47.2822V52.2375C245.949 79.8456 223.119 96.8352 195.157 96.8352H162.771L176.929 74.0055H195.157C208.607 74.0055 219.403 67.1034 219.403 52.2375V47.2822C219.403 32.4163 208.607 25.5143 195.157 25.5143H161.001ZM338.723 116.479H281.206L295.364 93.6497H330.759L308.283 29.2308L271.649 134H243.333L281.914 24.0985C286.515 11.0023 294.479 0.914755 308.283 0.914755C322.087 0.914755 330.051 11.0023 334.652 24.0985L373.233 134H344.917L338.723 116.479ZM405.253 52.5915V84.093C405.253 98.9589 416.048 111.17 429.499 111.17H447.196C454.452 111.17 462.593 107.631 467.017 101.968L490.024 119.665C480.821 128.514 461 134 447.196 134H429.499C401.537 134 378.707 111.701 378.707 84.093V52.5915C378.707 24.9834 401.537 2.6845 429.499 2.6845H447.196C461 2.6845 480.821 8.17073 490.024 17.0195L467.017 34.717C462.593 29.0538 454.452 25.5143 447.196 25.5143H429.499C416.048 25.5143 405.253 37.7256 405.253 52.5915ZM531.092 80.3766V111.17H598.873L611.262 134H529.499C515.695 134 504.546 123.558 504.546 110.816V25.8682C504.546 13.126 515.695 2.6845 529.499 2.6845H611.262L598.873 25.5143H531.092V57.5468H593.564V80.3766H531.092Z" fill="#0A0A0A"/>
</g>
<defs>
<filter id="filter0_d_8215_282" x="0.984375" y="0.914062" width="615.273" height="143.086" filterUnits="userSpaceOnUse" color-interpolation-filters="sRGB">
<feFlood flood-opacity="0" result="BackgroundImageFix"/>
<feColorMatrix in="SourceAlpha" type="matrix" values="0 0 0 0 0 0 0 0 0 0 0 0 0 0 0 0 0 0 127 0" result="hardAlpha"/>
<feOffset dy="5"/>
<feGaussianBlur stdDeviation="2.5"/>
<feComposite in2="hardAlpha" operator="out"/>
<feColorMatrix type="matrix" values="0 0 0 0 0.0392157 0 0 0 0 0.0392157 0 0 0 0 0.0392157 0 0 0 0.25 0"/>
<feBlend mode="normal" in2="BackgroundImageFix" result="effect1_dropShadow_8215_282"/>
<feBlend mode="normal" in="SourceGraphic" in2="effect1_dropShadow_8215_282" result="shape"/>
</filter>
</defs>
</svg>
