<svg width="81" height="24" viewBox="0 0 81 24" fill="none" xmlns="http://www.w3.org/2000/svg">
<g clip-path="url(#clip0_165_47089)">
<path d="M23.4912 12.0047C23.4912 18.6302 18.2326 24 11.7456 24C5.25858 24 0 18.6302 0 12.0047C0 5.37926 5.26166 0 11.7456 0C18.2295 0 23.4912 5.36979 23.4912 12.0047ZM13.0941 4.1709C12.6538 4.12988 12.2043 4.11095 11.7456 4.11095C11.2869 4.11095 10.8435 4.12988 10.4032 4.1709V10.5724H13.0941V4.1709ZM19.3133 7.90325C18.365 7.58459 17.3613 7.32273 16.3115 7.13027V12.5064C16.3115 16.3775 14.7043 18.4094 11.7456 18.4094C8.78688 18.4094 7.18591 16.3744 7.18591 12.5064V7.12712C6.13604 7.31957 5.13543 7.58459 4.18408 7.90009V12.5316C4.18408 16.7845 7.57076 20.2613 11.7456 20.2613C15.9204 20.2613 19.3133 16.7877 19.3133 12.5316V7.90009V7.90325Z" fill="#222222"/>
<path d="M48.14 7.48994C48.14 8.46168 47.6043 8.90969 46.8069 8.90969C46.0095 8.90969 45.4923 8.46799 45.4923 7.48994V4.28132H43.7712V7.54989C43.7712 9.67951 45.5107 10.5156 46.8161 10.5156C48.1216 10.5156 49.8642 9.67951 49.8642 7.54989V4.28132H48.1431L48.1339 7.48679L48.14 7.48994Z" fill="#222222"/>
<path d="M42.3211 5.77048V4.28132H36.7331V5.77048H40.0397L36.5976 8.91284V10.402H42.5274V8.91284H38.8852L42.3211 5.77048Z" fill="#222222"/>
<path d="M58.4755 4.16459C57.3856 4.16459 56.5636 4.6189 56.1572 5.30985C55.7416 4.6189 54.8426 4.16459 53.9066 4.16459C52.0686 4.16459 51.1111 5.36348 51.1111 6.84633V10.402H52.8321V7.09873C52.8321 6.38885 53.1954 5.76732 54.0298 5.76732C54.1991 5.75785 54.3715 5.78309 54.5285 5.84619C54.6886 5.90929 54.8333 6.00394 54.9534 6.12699C55.0735 6.25003 55.1658 6.39832 55.2274 6.56238C55.2859 6.72644 55.3136 6.89996 55.3013 7.07349V10.4052H57.0224V7.07349C57.0224 6.36361 57.4318 5.76416 58.2569 5.76416C59.0821 5.76416 59.4792 6.38885 59.4792 7.09557V10.3988H61.2003V6.84948C61.2003 5.36664 60.3136 4.16774 58.4632 4.16774H58.4786L58.4755 4.16459Z" fill="#222222"/>
<path d="M33.7467 7.48994C33.7467 8.46168 33.211 8.90969 32.4197 8.90969C31.6285 8.90969 31.0989 8.46799 31.0989 7.48994V4.28132H29.3779V7.54989C29.3779 9.67951 31.1112 10.5156 32.4228 10.5156C33.7344 10.5156 35.4646 9.67951 35.4646 7.54989V4.28132H33.7436V7.48679L33.7467 7.48994Z" fill="#222222"/>
<path d="M49.5594 15.9422C49.5594 14.6234 48.6018 13.9608 46.6807 13.9671C45.3568 13.9671 43.8174 14.3363 43.8174 15.7876C43.8174 16.5542 44.2669 17.16 44.9258 17.3682C45.6031 17.5828 46.2835 17.6869 46.9793 17.7437C47.3673 17.7752 48.0938 17.8919 48.0938 18.3336C48.0877 18.7375 47.6382 18.9394 46.7515 18.9394C45.8648 18.9394 45.4399 18.7312 45.4399 18.1854V18.0024H43.7035V18.1854C43.7035 19.5452 44.7164 20.2266 46.7515 20.2266C48.7989 20.2329 49.8303 19.5893 49.8303 18.3147C49.8303 17.3461 49.1591 16.7561 48.3217 16.5858C47.512 16.4154 46.6684 16.3965 45.9972 16.2166C45.7047 16.1378 45.5538 15.9706 45.5538 15.8002C45.5538 15.4311 45.9141 15.2481 46.6437 15.2481C47.3734 15.2481 47.8229 15.3522 47.8229 15.9422H49.5594Z" fill="#222222"/>
<path d="M73.9588 15.9422C73.9588 14.6234 73.0013 13.9608 71.0801 13.9671C69.7562 13.9671 68.2169 14.3363 68.2169 15.7876C68.2169 16.5542 68.6664 17.16 69.3252 17.3682C70.0025 17.5828 70.683 17.6869 71.3788 17.7437C71.7667 17.7752 72.4933 17.8919 72.4933 18.3336C72.4871 18.7375 72.0376 18.9394 71.1509 18.9394C70.2642 18.9394 69.8394 18.7312 69.8394 18.1854V18.0024H68.1029V18.1854C68.1029 19.5452 69.1159 20.2266 71.1509 20.2266C73.1983 20.2329 74.2297 19.5893 74.2297 18.3147C74.2297 17.3461 73.5586 16.7561 72.7211 16.5858C71.9114 16.4154 71.0678 16.3965 70.3966 16.2166C70.1041 16.1378 69.9533 15.9706 69.9533 15.8002C69.9533 15.4311 70.3135 15.2481 71.0432 15.2481C71.7729 15.2481 72.2224 15.3522 72.2224 15.9422H73.9588Z" fill="#222222"/>
<path d="M80.7291 15.9422C80.7291 14.6234 79.7716 13.9608 77.8504 13.9671C76.5265 13.9671 74.9871 14.3363 74.9871 15.7876C74.9871 16.5542 75.4366 17.16 76.0955 17.3682C76.7728 17.5828 77.4532 17.6869 78.149 17.7437C78.537 17.7752 79.2636 17.8919 79.2636 18.3336C79.2574 18.7375 78.8079 18.9394 77.9212 18.9394C77.0345 18.9394 76.6096 18.7312 76.6096 18.1854V18.0024H74.8732V18.1854C74.8732 19.5452 75.8861 20.2266 77.9212 20.2266C79.9686 20.2329 81 19.5893 81 18.3147C81 17.3461 80.3288 16.7561 79.4914 16.5858C78.6817 16.4154 77.8381 16.3965 77.1669 16.2166C76.8744 16.1378 76.7236 15.9706 76.7236 15.8002C76.7236 15.4311 77.0838 15.2481 77.8135 15.2481C78.5431 15.2481 78.9926 15.3522 78.9926 15.9422H80.7291Z" fill="#222222"/>
<path d="M52.592 14.0776H50.9048V20.0847H52.592V14.0776Z" fill="#222222"/>
<path d="M41.3143 17.2546C41.3143 18.2074 40.7909 18.6491 40.0089 18.6491C39.2269 18.6491 38.7189 18.2043 38.7189 17.2546V14.1028H37.0287V17.3146C37.0287 19.4032 38.7251 20.2298 40.0151 20.2298C41.3051 20.2298 43.0015 19.4032 43.0015 17.3146V14.1028H41.3113V17.2546H41.3143Z" fill="#222222"/>
<path d="M32.823 15.4658C31.8594 15.4658 31.142 16.1409 31.142 17.0937C31.142 18.0465 31.8624 18.6996 32.823 18.6996C33.7836 18.6996 34.5287 18.0371 34.5287 17.0937C34.5287 16.1504 33.8082 15.4658 32.823 15.4658ZM32.8384 20.2266C30.8218 20.2266 29.3809 19.2454 29.3809 16.8634V12.2161H31.0558V14.7054C31.5453 14.2132 32.1857 13.9766 33.1094 13.9766C35.1229 13.9766 36.2497 15.3869 36.2497 17.0937C36.2497 19.1287 34.7011 20.2266 32.8384 20.2266Z" fill="#222222"/>
<path d="M58.2138 16.936C58.2138 15.9832 57.6874 15.5415 56.9084 15.5415C56.1295 15.5415 55.6184 15.9863 55.6184 16.936V20.0847H53.9251V16.8792C53.9251 14.7874 55.6246 13.964 56.9146 13.964C58.2046 13.964 59.901 14.7874 59.901 16.8792V20.0847H58.2108V16.936H58.2138Z" fill="#222222"/>
<path d="M62.7889 16.4217H65.5106C65.5106 15.9358 65.2366 15.2418 64.159 15.2418C63.0814 15.2418 62.7859 15.9358 62.7859 16.4217M62.7643 17.4818C62.7643 18.1443 63.103 18.8069 64.1805 18.8069C65.1719 18.8069 65.3166 18.2011 65.3166 18.2011H67.1701C67.1701 18.2011 66.9946 20.1541 64.1805 20.1541C62.2194 20.1541 60.9848 19.0277 60.9848 17.018C60.9848 15.0083 62.2163 13.8946 64.159 13.8946C66.1017 13.8946 67.3117 15.0083 67.3117 17.018C67.3117 17.2389 67.2778 17.4818 67.2778 17.4818H62.7643Z" fill="#222222"/>
</g>
<defs>
<clipPath id="clip0_165_47089">
<rect width="81" height="24" fill="white"/>
</clipPath>
</defs>
</svg>
