<svg width="24" height="24" viewBox="0 0 24 24" fill="none" xmlns="http://www.w3.org/2000/svg">
<mask id="mask0_228_9023" style="mask-type:alpha" maskUnits="userSpaceOnUse" x="0" y="0" width="24" height="24">
<rect width="24" height="24" fill="#D9D9D9"/>
</mask>
<g mask="url(#mask0_228_9023)">
<path d="M12 13.0741C12.9474 13.0741 13.7524 12.7395 14.4148 12.0704C15.0772 11.4014 15.4084 10.5928 15.4084 9.64474C15.4084 8.68774 15.0772 7.8747 14.4148 7.20561C13.7524 6.53653 12.9474 6.20199 12 6.20199C11.0526 6.20199 10.2476 6.53653 9.58525 7.20561C8.92284 7.8747 8.59164 8.68774 8.59164 9.64474C8.59164 10.5928 8.92284 11.4014 9.58525 12.0704C10.2476 12.7395 11.0526 13.0741 12 13.0741ZM12 22C9.58011 21.3855 7.6418 20.0611 6.18507 18.0269C4.72836 15.9927 4 13.6979 4 11.1424V5.0202L12 2L20 5.0202V11.1424C20 13.6979 19.2716 15.9927 17.8149 18.0269C16.3582 20.0611 14.4199 21.3855 12 22ZM12 19.3796C12.901 19.0419 13.7025 18.5537 14.4045 17.915C15.1065 17.2763 15.716 16.552 16.2327 15.7421C15.5656 15.4107 14.8775 15.1603 14.1687 14.9912C13.4598 14.822 12.7369 14.7374 12 14.7374C11.2631 14.7374 10.5402 14.822 9.83134 14.9912C9.12246 15.1603 8.43443 15.4107 7.76725 15.7421C8.28403 16.552 8.89345 17.2763 9.5955 17.915C10.2975 18.5537 11.099 19.0419 12 19.3796Z" fill="#1C1B1F"/>
</g>
</svg>
