<svg viewBox="0 0 24 24" fill="none" xmlns="http://www.w3.org/2000/svg">
<path d="M11.5876 15.5635C11.4543 15.5635 11.3293 15.5425 11.2126 15.5005C11.0959 15.4592 10.9876 15.3885 10.8876 15.2885L6.26259 10.6635C6.07925 10.4802 5.99192 10.2508 6.00059 9.9755C6.00859 9.70084 6.10425 9.47184 6.28759 9.2885C6.47092 9.10517 6.70425 9.0135 6.98759 9.0135C7.27092 9.0135 7.50425 9.10517 7.68759 9.2885L11.5876 13.1885L15.5126 9.2635C15.6959 9.08017 15.9253 8.9925 16.2006 9.0005C16.4753 9.00917 16.7043 9.10517 16.8876 9.2885C17.0709 9.47184 17.1626 9.70517 17.1626 9.9885C17.1626 10.2718 17.0709 10.5052 16.8876 10.6885L12.2876 15.2885C12.1876 15.3885 12.0793 15.4592 11.9626 15.5005C11.8459 15.5425 11.7209 15.5635 11.5876 15.5635Z" fill="currentColor"/>
</svg>
