<svg width="24" height="24" viewBox="0 0 24 24" fill="none" xmlns="http://www.w3.org/2000/svg">
<path d="M17.0118 6.36719L12.0618 11.2922C11.9502 11.3944 11.8706 11.5036 11.8232 11.6199C11.7757 11.7362 11.752 11.8585 11.752 11.9868C11.752 12.115 11.7757 12.2415 11.8232 12.3661C11.8706 12.4907 11.9502 12.6042 12.0618 12.7063L17.0118 17.6563C17.2089 17.8534 17.4404 17.9478 17.7063 17.9395C17.9723 17.9312 18.2038 17.8284 18.4009 17.6313C18.598 17.4342 18.6966 17.2027 18.6966 16.9368C18.6966 16.6708 18.598 16.4393 18.4009 16.2422L14.1455 11.9868L18.4009 7.73134C18.598 7.53424 18.6942 7.30688 18.6895 7.04927C18.6848 6.79165 18.5886 6.56429 18.4009 6.36719C18.1944 6.17009 17.9605 6.07154 17.6993 6.07154C17.438 6.07154 17.2089 6.17009 17.0118 6.36719ZM10.5596 6.36719L5.60958 11.2922C5.49798 11.3944 5.41845 11.5036 5.37098 11.6199C5.32353 11.7362 5.2998 11.8585 5.2998 11.9868C5.2998 12.115 5.32353 12.2415 5.37098 12.3661C5.41845 12.4907 5.49798 12.6042 5.60958 12.7063L10.5596 17.6563C10.7567 17.8534 10.9882 17.9478 11.2542 17.9395C11.5201 17.9312 11.7516 17.8284 11.9487 17.6313C12.1458 17.4342 12.2444 17.2027 12.2444 16.9368C12.2444 16.6708 12.1458 16.4393 11.9487 16.2422L7.67918 11.9868L11.9487 7.73134C12.1458 7.53424 12.242 7.30688 12.2373 7.04927C12.2326 6.79165 12.1364 6.56429 11.9487 6.36719C11.7422 6.17009 11.5083 6.07154 11.2471 6.07154C10.9858 6.07154 10.7567 6.17009 10.5596 6.36719Z" fill="#222222"/>
</svg>
