<svg width="24" height="24" viewBox="0 0 24 24" fill="none" xmlns="http://www.w3.org/2000/svg">
  <path fill-rule="evenodd" clip-rule="evenodd" d="M4.5 20V4C4.5 4 4.5 3 6 3H15C15.9881 3 16.3253 3 16.5833 3.14294C16.717 3.21698 16.8294 3.32938 17 3.5L19 5.5C19.2125 5.71248 19.3347 5.83466 19.4049 5.98166C19.5 6.18058 19.5 6.42495 19.5 7V20C19.5 20 19.5 21 18 21H6C4.5 21 4.5 20 4.5 20ZM16.0753 3.78954C15.756 3.49017 15.2333 3.71659 15.2333 4.15431V6.5002C15.2333 6.77634 15.4572 7.0002 15.7333 7.0002H18.2356C18.6889 7.0002 18.9083 6.44544 18.5776 6.13543L17.3667 5.0002L16.0753 3.78954ZM6.25 16C6.25 15.5858 6.58579 15.25 7 15.25H13C13.4142 15.25 13.75 15.5858 13.75 16C13.75 16.4142 13.4142 16.75 13 16.75H7C6.58579 16.75 6.25 16.4142 6.25 16ZM7 10.25C6.58579 10.25 6.25 10.5858 6.25 11C6.25 11.4142 6.58579 11.75 7 11.75H16C16.4142 11.75 16.75 11.4142 16.75 11C16.75 10.5858 16.4142 10.25 16 10.25H7Z" fill="currentColor"/>
</svg>
