<svg width="24" height="24" viewBox="0 0 24 24" fill="none" xmlns="http://www.w3.org/2000/svg">
<path fill-rule="evenodd" clip-rule="evenodd" d="M5.68804 4.56659C7.02281 3.55596 8.64321 2.84839 10.5001 2.59894V5.64034C9.50828 5.83095 8.61685 6.20779 7.84332 6.72188L5.68804 4.56659ZM16.1569 6.72188C15.3834 6.20779 14.4919 5.83095 13.5001 5.64034V2.59894C15.357 2.84839 16.9774 3.55596 18.3122 4.56659L16.1569 6.72188ZM4.65347 11.4996C4.84538 10.5643 5.21369 9.6643 5.73732 8.85851L3.58497 6.70617C2.54211 8.12661 1.86381 9.78861 1.6111 11.4996H4.65347ZM4.58676 14.4996H1.56738C1.64155 15.2551 1.78223 15.9648 2.01459 16.6618C2.39411 17.8004 2.98942 18.8191 3.80011 19.9C4.29717 20.5627 5.23737 20.697 5.90011 20.2C6.56285 19.7029 6.69717 18.7627 6.20011 18.1C5.5108 17.1809 5.10611 16.4496 4.86064 15.7131C4.73682 15.3417 4.64619 14.947 4.58676 14.4996ZM18.2629 8.85851C18.7865 9.6643 19.1548 10.5643 19.3468 11.4996H22.3891C22.1364 9.78861 21.4581 8.12661 20.4153 6.70616L18.2629 8.85851ZM22.4328 14.4996H19.4135C19.354 14.947 19.2634 15.3417 19.1396 15.7131C18.8941 16.4496 18.4894 17.1809 17.8001 18.1C17.3031 18.7627 17.4374 19.7029 18.1001 20.2C18.7629 20.697 19.7031 20.5627 20.2001 19.9C21.0108 18.8191 21.6061 17.8004 21.9856 16.6618C22.218 15.9648 22.3587 15.2551 22.4328 14.4996Z" fill="currentColor"/>
<circle cx="12" cy="12.9998" r="2" fill="currentColor"/>
<path d="M12 12.9993L15 9.99982" stroke="currentColor" stroke-width="2" stroke-linecap="round" stroke-linejoin="round"/>
</svg>
