<svg width="24" height="24" viewBox="0 0 24 24" fill="none" xmlns="http://www.w3.org/2000/svg">
<g clip-path="url(#clip0_380_6953)">
<path d="M2.99999 0H15.7447L22.5 6.72902V22.5C22.5 23.3287 21.828 24 21 24H2.99999C2.17196 24 1.5 23.3287 1.5 22.5V1.49999C1.5 0.671265 2.17204 0 2.99999 0Z" fill="#2A57B1"/>
<path d="M22.4783 6.74997H17.25C16.422 6.74997 15.7501 6.07801 15.7501 5.24999V0.0149765L22.4783 6.74997Z" fill="#1E4288"/>
<path d="M15.8688 10.288L14.4128 16H13.0368L12.2608 13C12.2448 12.9413 12.2235 12.8533 12.1968 12.736C12.1755 12.6187 12.1488 12.4907 12.1168 12.352C12.0901 12.2133 12.0661 12.0827 12.0448 11.96C12.0235 11.832 12.0075 11.7333 11.9968 11.664C11.9915 11.7333 11.9755 11.832 11.9488 11.96C11.9275 12.0827 11.9035 12.2133 11.8768 12.352C11.8501 12.4853 11.8235 12.6133 11.7968 12.736C11.7701 12.8533 11.7488 12.944 11.7328 13.008L10.9648 16H9.58881L8.13281 10.288H9.32481L10.0528 13.408C10.0741 13.4987 10.0981 13.6107 10.1248 13.744C10.1515 13.872 10.1781 14.008 10.2048 14.152C10.2315 14.2907 10.2555 14.4267 10.2768 14.56C10.3035 14.6933 10.3221 14.808 10.3328 14.904C10.3435 14.8027 10.3595 14.688 10.3808 14.56C10.4021 14.4267 10.4261 14.2933 10.4528 14.16C10.4795 14.0213 10.5035 13.8933 10.5248 13.776C10.5515 13.6533 10.5755 13.5573 10.5968 13.488L11.4288 10.288H12.5728L13.4048 13.488C13.4208 13.5573 13.4421 13.6533 13.4688 13.776C13.4955 13.8933 13.5221 14.0213 13.5488 14.16C13.5755 14.2987 13.5995 14.4347 13.6208 14.568C13.6421 14.696 13.6581 14.808 13.6688 14.904C13.6848 14.7707 13.7088 14.6133 13.7408 14.432C13.7728 14.2453 13.8075 14.0587 13.8448 13.872C13.8875 13.6853 13.9221 13.5307 13.9488 13.408L14.6768 10.288H15.8688Z" fill="white"/>
</g>
<defs>
<clipPath id="clip0_380_6953">
<rect width="24" height="24" fill="white"/>
</clipPath>
</defs>
</svg>
