<svg width="24" height="24" viewBox="0 0 24 24" fill="none" xmlns="http://www.w3.org/2000/svg">
<g clip-path="url(#clip0_380_6907)">
<path d="M2.99999 0H15.7447L22.5 6.72902V22.5C22.5 23.3287 21.828 24 21 24H2.99999C2.17196 24 1.5 23.3287 1.5 22.5V1.49999C1.5 0.671265 2.17204 0 2.99999 0Z" fill="#586978"/>
<path d="M22.4783 6.74997H17.25C16.422 6.74997 15.7501 6.07801 15.7501 5.24999V0.0149765L22.4783 6.74997Z" fill="#414D58"/>
<path d="M7.66682 16H6.60982V11.884H5.25182V11.002H9.02482V11.884H7.66682V16ZM13.8345 16H12.6235L11.4615 14.11L10.2995 16H9.16553L10.8245 13.424L9.27053 11.002H10.4395L11.5175 12.801L12.5745 11.002H13.7155L12.1475 13.48L13.8345 16ZM16.3895 16H15.3325V11.884H13.9745V11.002H17.7475V11.884H16.3895V16Z" fill="white"/>
</g>
<defs>
<clipPath id="clip0_380_6907">
<rect width="24" height="24" fill="white"/>
</clipPath>
</defs>
</svg>
