<svg width="24" height="24" viewBox="0 0 24 24" fill="none" xmlns="http://www.w3.org/2000/svg">
<g clip-path="url(#clip0_380_6894)">
<path d="M2.99999 0H15.7447L22.5 6.72902V22.5C22.5 23.3287 21.828 24 21 24H2.99999C2.17196 24 1.5 23.3287 1.5 22.5V1.49999C1.5 0.671265 2.17204 0 2.99999 0Z" fill="#6CA7D7"/>
<path d="M22.4783 6.74997H17.25C16.422 6.74997 15.7501 6.07801 15.7501 5.24999V0.0149765L22.4783 6.74997Z" fill="#4680BD"/>
<path d="M6.64836 11.002C7.29236 11.002 7.76136 11.142 8.05536 11.422C8.35403 11.6973 8.50336 12.0777 8.50336 12.563C8.50336 12.7823 8.4707 12.9923 8.40536 13.193C8.34003 13.389 8.23036 13.5663 8.07636 13.725C7.92703 13.879 7.7287 14.0003 7.48136 14.089C7.23403 14.1777 6.92836 14.222 6.56436 14.222H6.10936V16H5.05236V11.002H6.64836ZM6.59236 11.87H6.10936V13.354H6.45936C6.66003 13.354 6.8327 13.3283 6.97736 13.277C7.12203 13.2257 7.23403 13.144 7.31336 13.032C7.3927 12.92 7.43236 12.7753 7.43236 12.598C7.43236 12.3507 7.3647 12.1687 7.22936 12.052C7.09403 11.9307 6.8817 11.87 6.59236 11.87ZM13.8789 16H12.5349L10.3579 12.22H10.3299C10.3345 12.3367 10.3392 12.4557 10.3439 12.577C10.3485 12.6937 10.3532 12.8127 10.3579 12.934C10.3672 13.0507 10.3742 13.1697 10.3789 13.291C10.3835 13.4077 10.3882 13.5267 10.3929 13.648V16H9.44787V11.002H10.7849L12.9549 14.747H12.9759C12.9712 14.6303 12.9665 14.516 12.9619 14.404C12.9572 14.2873 12.9525 14.173 12.9479 14.061C12.9479 13.9443 12.9455 13.83 12.9409 13.718C12.9362 13.6013 12.9315 13.4847 12.9269 13.368V11.002H13.8789V16ZM17.0392 13.193H19.0202V15.783C18.7589 15.8717 18.4859 15.9417 18.2012 15.993C17.9212 16.0443 17.6015 16.07 17.2422 16.07C16.7475 16.07 16.3252 15.972 15.9752 15.776C15.6299 15.58 15.3662 15.2907 15.1842 14.908C15.0069 14.5253 14.9182 14.054 14.9182 13.494C14.9182 12.9713 15.0185 12.5187 15.2192 12.136C15.4245 11.7533 15.7209 11.457 16.1082 11.247C16.4955 11.037 16.9692 10.932 17.5292 10.932C17.7952 10.932 18.0565 10.96 18.3132 11.016C18.5699 11.072 18.8032 11.1467 19.0132 11.24L18.6632 12.087C18.5092 12.0077 18.3342 11.9423 18.1382 11.891C17.9422 11.8397 17.7369 11.814 17.5222 11.814C17.2142 11.814 16.9459 11.884 16.7172 12.024C16.4932 12.164 16.3182 12.3623 16.1922 12.619C16.0709 12.871 16.0102 13.1697 16.0102 13.515C16.0102 13.8417 16.0545 14.131 16.1432 14.383C16.2319 14.635 16.3719 14.8333 16.5632 14.978C16.7545 15.118 17.0042 15.188 17.3122 15.188C17.4149 15.188 17.5035 15.1857 17.5782 15.181C17.6575 15.1717 17.7299 15.1623 17.7952 15.153C17.8605 15.139 17.9235 15.1273 17.9842 15.118V14.075H17.0392V13.193Z" fill="white"/>
</g>
<defs>
<clipPath id="clip0_380_6894">
<rect width="24" height="24" fill="white"/>
</clipPath>
</defs>
</svg>
