<svg width="24" height="24" viewBox="0 0 24 24" fill="none" xmlns="http://www.w3.org/2000/svg">
<g clip-path="url(#clip0_378_6851)">
<path d="M2.99999 0H15.7447L22.5 6.72902V22.5C22.5 23.3287 21.828 24 21 24H2.99999C2.17196 24 1.5 23.3287 1.5 22.5V1.49999C1.5 0.671265 2.17204 0 2.99999 0Z" fill="#E2574C"/>
<path d="M22.4783 6.74997H17.25C16.422 6.74997 15.7501 6.07801 15.7501 5.24999V0.0149765L22.4783 6.74997Z" fill="#B53629"/>
<path d="M7.51653 11.002C8.16053 11.002 8.62953 11.142 8.92353 11.422C9.22219 11.6973 9.37153 12.0777 9.37153 12.563C9.37153 12.7823 9.33886 12.9923 9.27353 13.193C9.20819 13.389 9.09853 13.5663 8.94453 13.725C8.79519 13.879 8.59686 14.0003 8.34953 14.089C8.10219 14.1777 7.79653 14.222 7.43253 14.222H6.97753V16H5.92053V11.002H7.51653ZM7.46053 11.87H6.97753V13.354H7.32753C7.52819 13.354 7.70086 13.3283 7.84553 13.277C7.99019 13.2257 8.10219 13.144 8.18153 13.032C8.26086 12.92 8.30053 12.7753 8.30053 12.598C8.30053 12.3507 8.23286 12.1687 8.09753 12.052C7.96219 11.9307 7.74986 11.87 7.46053 11.87ZM14.46 13.452C14.46 14.012 14.3527 14.481 14.138 14.859C13.9234 15.237 13.6107 15.5217 13.2 15.713C12.794 15.9043 12.304 16 11.73 16H10.316V11.002H11.884C12.4067 11.002 12.8594 11.0953 13.242 11.282C13.6294 11.4687 13.928 11.744 14.138 12.108C14.3527 12.4673 14.46 12.9153 14.46 13.452ZM13.361 13.48C13.361 13.1113 13.3074 12.808 13.2 12.57C13.0927 12.332 12.9317 12.157 12.717 12.045C12.507 11.9283 12.248 11.87 11.94 11.87H11.373V15.125H11.828C12.346 15.125 12.731 14.9873 12.983 14.712C13.235 14.4367 13.361 14.026 13.361 13.48ZM16.5407 16H15.4977V11.002H18.3607V11.87H16.5407V13.158H18.2347V14.026H16.5407V16Z" fill="white"/>
</g>
<defs>
<clipPath id="clip0_378_6851">
<rect width="24" height="24" fill="white"/>
</clipPath>
</defs>
</svg>
