<svg width="24" height="24" viewBox="0 0 24 24" fill="none" xmlns="http://www.w3.org/2000/svg">
<g clip-path="url(#clip0_380_6951)">
<path d="M2.99999 0H15.7447L22.5 6.72902V22.5C22.5 23.3287 21.828 24 21 24H2.99999C2.17196 24 1.5 23.3287 1.5 22.5V1.49999C1.5 0.671265 2.17204 0 2.99999 0Z" fill="#367645"/>
<path d="M22.4783 6.74997H17.25C16.422 6.74997 15.7501 6.07801 15.7501 5.24999V0.0149765L22.4783 6.74997Z" fill="#2C5738"/>
<path d="M14.668 16H13.284L11.956 13.84L10.628 16H9.33203L11.228 13.056L9.45203 10.288H10.788L12.02 12.344L13.228 10.288H14.532L12.74 13.12L14.668 16Z" fill="white"/>
</g>
<defs>
<clipPath id="clip0_380_6951">
<rect width="24" height="24" fill="white"/>
</clipPath>
</defs>
</svg>
