<svg width="24" height="24" viewBox="0 0 24 24" fill="none" xmlns="http://www.w3.org/2000/svg">
<g clip-path="url(#clip0_380_6952)">
<path d="M2.99999 0H15.7447L22.5 6.72902V22.5C22.5 23.3287 21.828 24 21 24H2.99999C2.17196 24 1.5 23.3287 1.5 22.5V1.49999C1.5 0.671265 2.17204 0 2.99999 0Z" fill="#55B497"/>
<path d="M22.4783 6.74997H17.25C16.422 6.74997 15.7501 6.07801 15.7501 5.24999V0.0149765L22.4783 6.74997Z" fill="#B7DCD1"/>
<path d="M8.81838 11.814C8.61772 11.814 8.43805 11.8537 8.27938 11.933C8.12538 12.0123 7.99472 12.1267 7.88738 12.276C7.78005 12.4207 7.69838 12.598 7.64238 12.808C7.59105 13.018 7.56538 13.2537 7.56538 13.515C7.56538 13.8697 7.60738 14.173 7.69138 14.425C7.78005 14.6723 7.91772 14.8613 8.10438 14.992C8.29105 15.1227 8.52905 15.188 8.81838 15.188C9.02372 15.188 9.22672 15.1647 9.42738 15.118C9.63272 15.0713 9.85438 15.006 10.0924 14.922V15.811C9.87305 15.8997 9.65605 15.965 9.44138 16.007C9.22672 16.049 8.98638 16.07 8.72038 16.07C8.20705 16.07 7.78238 15.965 7.44638 15.755C7.11505 15.5403 6.87005 15.2417 6.71138 14.859C6.55272 14.4717 6.47338 14.0213 6.47338 13.508C6.47338 13.13 6.52472 12.7847 6.62738 12.472C6.73005 12.1547 6.87938 11.8817 7.07538 11.653C7.27605 11.4243 7.52105 11.247 7.81038 11.121C8.10438 10.995 8.44038 10.932 8.81838 10.932C9.06572 10.932 9.31305 10.9647 9.56038 11.03C9.81238 11.0907 10.0527 11.1747 10.2814 11.282L9.93838 12.143C9.75172 12.0543 9.56272 11.9773 9.37138 11.912C9.18472 11.8467 9.00038 11.814 8.81838 11.814ZM14.1014 14.614C14.1014 14.908 14.0291 15.1647 13.8844 15.384C13.7397 15.6033 13.5297 15.7737 13.2544 15.895C12.9837 16.0117 12.6524 16.07 12.2604 16.07C12.0877 16.07 11.9174 16.0583 11.7494 16.035C11.5861 16.0117 11.4274 15.979 11.2734 15.937C11.1241 15.8903 10.9817 15.8343 10.8464 15.769V14.782C11.0844 14.8847 11.3294 14.9803 11.5814 15.069C11.8381 15.153 12.0924 15.195 12.3444 15.195C12.5171 15.195 12.6547 15.1717 12.7574 15.125C12.8647 15.0783 12.9417 15.0153 12.9884 14.936C13.0397 14.8567 13.0654 14.7657 13.0654 14.663C13.0654 14.537 13.0211 14.4297 12.9324 14.341C12.8484 14.2523 12.7341 14.1707 12.5894 14.096C12.4447 14.0167 12.2791 13.9327 12.0924 13.844C11.9757 13.788 11.8497 13.7227 11.7144 13.648C11.5791 13.5687 11.4484 13.473 11.3224 13.361C11.2011 13.2443 11.1007 13.1043 11.0214 12.941C10.9421 12.7777 10.9024 12.5817 10.9024 12.353C10.9024 12.0543 10.9701 11.8 11.1054 11.59C11.2454 11.3753 11.4414 11.212 11.6934 11.1C11.9501 10.988 12.2511 10.932 12.5964 10.932C12.8577 10.932 13.1051 10.9623 13.3384 11.023C13.5764 11.0837 13.8237 11.17 14.0804 11.282L13.7374 12.108C13.5087 12.0147 13.3034 11.9423 13.1214 11.891C12.9394 11.8397 12.7527 11.814 12.5614 11.814C12.4307 11.814 12.3187 11.835 12.2254 11.877C12.1321 11.919 12.0597 11.9773 12.0084 12.052C11.9617 12.1267 11.9384 12.2153 11.9384 12.318C11.9384 12.4347 11.9734 12.535 12.0434 12.619C12.1134 12.6983 12.2184 12.7753 12.3584 12.85C12.4984 12.9247 12.6734 13.0133 12.8834 13.116C13.1401 13.2373 13.3571 13.3633 13.5344 13.494C13.7164 13.6247 13.8564 13.7787 13.9544 13.956C14.0524 14.1333 14.1014 14.3527 14.1014 14.614ZM18.9299 11.002L17.2289 16H16.0739L14.3799 11.002H15.4509L16.3889 13.977C16.4075 14.0283 16.4332 14.124 16.4659 14.264C16.5032 14.3993 16.5405 14.544 16.5779 14.698C16.6152 14.8473 16.6409 14.9733 16.6549 15.076C16.6689 14.9733 16.6922 14.8473 16.7249 14.698C16.7622 14.544 16.7995 14.3993 16.8369 14.264C16.8742 14.124 16.8999 14.0283 16.9139 13.977L17.8589 11.002H18.9299Z" fill="white"/>
</g>
<defs>
<clipPath id="clip0_380_6952">
<rect width="24" height="24" fill="white"/>
</clipPath>
</defs>
</svg>
