<svg width="24" height="24" viewBox="0 0 24 24" fill="none" xmlns="http://www.w3.org/2000/svg">
<g clip-path="url(#clip0_380_6893)">
<path d="M2.99999 0H15.7447L22.5 6.72902V22.5C22.5 23.3287 21.828 24 21 24H2.99999C2.17196 24 1.5 23.3287 1.5 22.5V1.49999C1.5 0.671265 2.17204 0 2.99999 0Z" fill="#E69536"/>
<path d="M22.4783 6.74997H17.25C16.422 6.74997 15.7501 6.07801 15.7501 5.24999V0.0149765L22.4783 6.74997Z" fill="#BD792A"/>
<path d="M6.21584 17.47C6.08051 17.47 5.96151 17.4607 5.85884 17.442C5.75617 17.428 5.66751 17.4117 5.59284 17.393V16.511C5.66751 16.5297 5.74684 16.546 5.83084 16.56C5.91017 16.574 5.99651 16.581 6.08984 16.581C6.21117 16.581 6.32084 16.5577 6.41884 16.511C6.52151 16.4643 6.60084 16.3757 6.65684 16.245C6.71284 16.1143 6.74084 15.9277 6.74084 15.685V11.002H7.79784V15.678C7.79784 16.1073 7.73017 16.4527 7.59484 16.714C7.46417 16.98 7.27984 17.1713 7.04184 17.288C6.80384 17.4093 6.52851 17.47 6.21584 17.47ZM10.6542 11.002C11.2982 11.002 11.7672 11.142 12.0612 11.422C12.3599 11.6973 12.5092 12.0777 12.5092 12.563C12.5092 12.7823 12.4766 12.9923 12.4112 13.193C12.3459 13.389 12.2362 13.5663 12.0822 13.725C11.9329 13.879 11.7346 14.0003 11.4872 14.089C11.2399 14.1777 10.9342 14.222 10.5702 14.222H10.1152V16H9.05822V11.002H10.6542ZM10.5982 11.87H10.1152V13.354H10.4652C10.6659 13.354 10.8386 13.3283 10.9832 13.277C11.1279 13.2257 11.2399 13.144 11.3192 13.032C11.3986 12.92 11.4382 12.7753 11.4382 12.598C11.4382 12.3507 11.3706 12.1687 11.2352 12.052C11.0999 11.9307 10.8876 11.87 10.5982 11.87ZM15.3507 13.193H17.3317V15.783C17.0704 15.8717 16.7974 15.9417 16.5127 15.993C16.2327 16.0443 15.9131 16.07 15.5537 16.07C15.0591 16.07 14.6367 15.972 14.2867 15.776C13.9414 15.58 13.6777 15.2907 13.4957 14.908C13.3184 14.5253 13.2297 14.054 13.2297 13.494C13.2297 12.9713 13.3301 12.5187 13.5307 12.136C13.7361 11.7533 14.0324 11.457 14.4197 11.247C14.8071 11.037 15.2807 10.932 15.8407 10.932C16.1067 10.932 16.3681 10.96 16.6247 11.016C16.8814 11.072 17.1147 11.1467 17.3247 11.24L16.9747 12.087C16.8207 12.0077 16.6457 11.9423 16.4497 11.891C16.2537 11.8397 16.0484 11.814 15.8337 11.814C15.5257 11.814 15.2574 11.884 15.0287 12.024C14.8047 12.164 14.6297 12.3623 14.5037 12.619C14.3824 12.871 14.3217 13.1697 14.3217 13.515C14.3217 13.8417 14.3661 14.131 14.4547 14.383C14.5434 14.635 14.6834 14.8333 14.8747 14.978C15.0661 15.118 15.3157 15.188 15.6237 15.188C15.7264 15.188 15.8151 15.1857 15.8897 15.181C15.9691 15.1717 16.0414 15.1623 16.1067 15.153C16.1721 15.139 16.2351 15.1273 16.2957 15.118V14.075H15.3507V13.193Z" fill="white"/>
</g>
<defs>
<clipPath id="clip0_380_6893">
<rect width="24" height="24" fill="white"/>
</clipPath>
</defs>
</svg>
