<svg xmlns="http://www.w3.org/2000/svg" viewBox="0 0 25 24" fill="none">
  <path fill-rule="evenodd" clip-rule="evenodd" d="M10 3.50034C8.41461 3.50034 7.07542 4.56336 6.64504 6.02118H3.5C2.94772 6.02118 2.5 6.47269 2.5 7.02965C2.5 7.58662 2.94772 8.03813 3.5 8.03813H6.64484C7.075 9.4963 8.41436 10.5597 10 10.5597C11.5856 10.5597 12.925 9.4963 13.3552 8.03813H21.5C22.0523 8.03813 22.5 7.58662 22.5 7.02965C22.5 6.47269 22.0523 6.02118 21.5 6.02118H13.355C12.9246 4.56336 11.5854 3.50034 10 3.50034ZM8.5 7.03C8.5 6.19455 9.17157 5.51729 10 5.51729C10.8284 5.51729 11.5 6.19455 11.5 7.03C11.5 7.86545 10.8284 8.54271 10 8.54271C9.17157 8.54271 8.5 7.86545 8.5 7.03Z" fill="currentColor"/>
  <path fill-rule="evenodd" clip-rule="evenodd" d="M11.6907 18.1229H3.5C2.94772 18.1229 2.5 17.6714 2.5 17.1144C2.5 16.5574 2.94772 16.1059 3.5 16.1059H11.6058C11.9882 14.5746 13.3628 13.441 15 13.441C16.6372 13.441 18.0118 14.5746 18.3942 16.1059H21.5C22.0523 16.1059 22.5 16.5574 22.5 17.1144C22.5 17.6714 22.0523 18.1229 21.5 18.1229H18.3093C17.8357 19.5065 16.5329 20.5003 15 20.5003C13.4671 20.5003 12.1643 19.5065 11.6907 18.1229ZM13.5 16.9707C13.5 16.1352 14.1716 15.458 15 15.458C15.8284 15.458 16.5 16.1352 16.5 16.9707C16.5 17.8061 15.8284 18.4834 15 18.4834C14.1716 18.4834 13.5 17.8061 13.5 16.9707Z" fill="currentColor"/>
</svg>
