<svg width="24" height="24" viewBox="0 0 24 24" fill="none" xmlns="http://www.w3.org/2000/svg">
<path d="M21 10.9286C21.5918 10.9286 22.0715 11.4083 22.0715 12C22.0715 12.5918 21.5918 13.0714 21 13.0714V10.9286ZM21 13.0714H19.0001V10.9286H21V13.0714ZM19.0001 13.0714H17V10.9286H19.0001V13.0714Z" fill="#222222"/>
<path fill-rule="evenodd" clip-rule="evenodd" d="M17 5.42858C17 3.53504 15.465 2.00001 13.5714 2.00001H6.42857C4.53502 2.00001 3 3.53503 3 5.42858V18.5714C3 20.465 4.53502 22 6.42857 22H13.5714C15.465 22 17 20.465 17 18.5714V13.0714H11.8391L13.7416 14.9739C14.2298 15.4621 14.2298 16.2536 13.7416 16.7417C13.2535 17.2299 12.462 17.2299 11.9739 16.7417L8.11674 12.8846C7.62859 12.3964 7.62859 11.605 8.11674 11.1168L11.9739 7.25966C12.462 6.7715 13.2535 6.7715 13.7416 7.25965C14.2298 7.7478 14.2298 8.53926 13.7416 9.02742L11.8405 10.9286H17V5.42858Z" fill="#222222"/>
</svg>
