<svg width="24" height="24" viewBox="0 0 24 24" fill="none" xmlns="http://www.w3.org/2000/svg">
<path d="M3.51953 19.4804V16.8304H5.34996V10.3109C5.34996 8.80506 5.79253 7.45578 6.67768 6.26303C7.56281 5.07026 8.72857 4.29308 10.175 3.93148V3.34453C10.175 2.83758 10.3524 2.40667 10.7073 2.05181C11.0621 1.69696 11.493 1.51953 12 1.51953C12.5069 1.51953 12.9378 1.69696 13.2927 2.05181C13.6476 2.40667 13.825 2.83758 13.825 3.34453V3.93148C15.2808 4.29308 16.4489 5.06791 17.3294 6.25596C18.2098 7.44401 18.65 8.79564 18.65 10.3109V16.8304H20.4804V19.4804H3.51953ZM12.0141 22.6359C11.4175 22.6359 10.9067 22.4248 10.4819 22.0027C10.057 21.5806 9.84453 21.0732 9.84453 20.4804H14.1696C14.1696 21.0775 13.9585 21.5861 13.5364 22.006C13.1143 22.4259 12.6069 22.6359 12.0141 22.6359Z" fill="currentColor"/>
</svg>
