<svg width="24" height="24" viewBox="0 0 24 24" fill="none" xmlns="http://www.w3.org/2000/svg">
  <mask id="mask0_539_6106" style="mask-type:alpha" maskUnits="userSpaceOnUse" x="0" y="0" width="24" height="24">
    <rect width="24" height="24" fill="#D9D9D9"/>
  </mask>
  <g mask="url(#mask0_539_6106)">
    <path d="M6.16959 22.4804C5.43117 22.4804 4.8049 22.2234 4.29076 21.7092C3.77663 21.1951 3.51956 20.5688 3.51956 19.8304V4.16956C3.51956 3.43114 3.77663 2.80487 4.29076 2.29073C4.8049 1.7766 5.43117 1.51953 6.16959 1.51953H14.1978L20.4805 7.80216V19.8304C20.4805 20.5688 20.2234 21.1951 19.7093 21.7092C19.1951 22.2234 18.5689 22.4804 17.8304 22.4804H6.16959ZM10.887 19.0282H13.1131V18.0282H14C14.3154 18.0282 14.5797 17.9229 14.7931 17.7123C15.0064 17.5017 15.1131 17.2407 15.1131 16.9293V13.8163C15.1131 13.5009 15.0064 13.2366 14.7931 13.0232C14.5797 12.8099 14.3154 12.7032 14 12.7032H11.1131V11.8163H15.1131V9.60431H13.1131V8.60431H10.887V9.60431H10C9.68465 9.60431 9.4203 9.70962 9.20696 9.92026C8.99363 10.1309 8.88696 10.3919 8.88696 10.7032V13.8163C8.88696 14.1316 8.99363 14.396 9.20696 14.6093C9.4203 14.8227 9.68465 14.9293 10 14.9293H12.887V15.8163H8.88696V18.0282H10.887V19.0282ZM13.2457 7.80216H17.3446L13.2457 3.71736V7.80216Z" fill="currentColor"/>
  </g>
</svg>
