<svg xmlns="http://www.w3.org/2000/svg" width="20" height="20" viewBox="0 0 20 20" fill="none">
  <path d="M8.8958 10.8333V2.09961H11.1042V10.8333H8.8958ZM9.99846 17.9004C8.91674 17.9004 7.89632 17.6923 6.93719 17.2763C5.97808 16.8603 5.13977 16.2946 4.42226 15.5793C3.70474 14.864 3.13826 14.0264 2.7228 13.0665C2.30734 12.1066 2.09961 11.0844 2.09961 9.99998C2.09961 8.83512 2.33466 7.73578 2.80476 6.70196C3.27487 5.66814 3.93837 4.78228 4.79526 4.04436L6.39219 5.62953C5.73562 6.15572 5.22411 6.80037 4.85765 7.56346C4.49119 8.32657 4.30796 9.13875 4.30796 9.99998C4.30796 11.5721 4.86362 12.9138 5.97494 14.025C7.08626 15.1364 8.42798 15.692 10.0001 15.692C11.5858 15.692 12.9308 15.1364 14.0353 14.025C15.1398 12.9138 15.692 11.5721 15.692 9.99998C15.692 9.13932 15.5119 8.32376 15.1517 7.55332C14.7915 6.78286 14.2651 6.12196 13.5724 5.57063L15.1694 3.98548C16.0498 4.74696 16.7251 5.64823 17.1952 6.6893C17.6653 7.73035 17.9004 8.83498 17.9004 10.0032C17.9004 11.0838 17.6926 12.1045 17.2772 13.0652C16.8617 14.026 16.2976 14.8643 15.5847 15.5802C14.8718 16.296 14.0367 16.8617 13.0792 17.2772C12.1217 17.6926 11.0948 17.9004 9.99846 17.9004Z" fill="currentColor"/>
</svg>
