<svg width="24" height="24" viewBox="0 0 24 24" fill="none" xmlns="http://www.w3.org/2000/svg">
  <path d="M17.969 9.15817C18.3561 8.76423 18.9837 8.76423 19.3708 9.15817L21.3249 11.1468C21.9459 11.7788 21.5122 12.8597 20.6341 12.8688L18.6699 12.8891L16.7058 12.8688C15.8276 12.8597 15.394 11.7788 16.015 11.1468L17.969 9.15817Z" fill="currentColor"/>
  <path fill-rule="evenodd" clip-rule="evenodd" d="M16.1762 11.9998C16.0814 12.3265 16.3538 12.6971 16.7427 12.6311L17.2564 12.544C17.5616 12.4922 17.8413 12.7281 17.8088 13.0359C17.5218 15.7554 15.2964 18.2225 12.5998 18.2225C11.852 18.2225 11.1357 18.0628 10.4933 17.7706C10.2891 17.6777 10.0456 17.7109 9.88834 17.8709L9.3093 18.4602C9.08728 18.6862 9.12853 19.06 9.40869 19.2078C10.3631 19.7114 11.4475 20.0002 12.5998 20.0002C16.2655 20.0002 19.2696 16.7302 19.5633 13.0365C19.5878 12.728 19.8652 12.4922 20.1704 12.544L20.6842 12.6311C21.0731 12.6971 21.3455 12.3265 21.2507 11.9998H16.1762Z" fill="currentColor"/>
  <path d="M6.02412 14.841C5.63703 15.2349 5.00945 15.2349 4.62237 14.841L2.66829 12.8523C2.0473 12.2203 2.48093 11.1394 3.3591 11.1303L5.32324 11.11L7.28739 11.1303C8.16555 11.1394 8.59919 12.2203 7.9782 12.8523L6.02412 14.841Z" fill="currentColor"/>
  <path fill-rule="evenodd" clip-rule="evenodd" d="M7.81695 11.9993C7.91177 11.6726 7.63937 11.3021 7.25048 11.368L6.73672 11.4552C6.43153 11.5069 6.15191 11.2711 6.1844 10.9632C6.47136 8.24376 8.6968 5.77667 11.3934 5.77667C12.1411 5.77667 12.8575 5.93633 13.4999 6.22858C13.7041 6.32147 13.9476 6.28821 14.1048 6.1282L14.6839 5.5389C14.9059 5.31296 14.8646 4.93914 14.5845 4.7913C13.6301 4.2877 12.5457 3.99898 11.3934 3.99898C7.7277 3.99898 4.72352 7.26898 4.42989 10.9626C4.40535 11.2712 4.12792 11.5069 3.82273 11.4552L3.30898 11.368C2.92009 11.3021 2.64769 11.6726 2.7425 11.9993H7.81695Z" fill="currentColor"/>
</svg>
