<svg width="24" height="24" viewBox="0 0 24 24" fill="none" xmlns="http://www.w3.org/2000/svg">
<mask id="mask0_228_9033" style="mask-type:alpha" maskUnits="userSpaceOnUse" x="0" y="0" width="24" height="24">
<rect width="24" height="24" fill="#D9D9D9"/>
</mask>
<g mask="url(#mask0_228_9033)">
<path d="M17.0257 22C15.6452 22 14.4684 21.494 13.4954 20.4819C12.5224 19.4699 12.0359 18.2459 12.0359 16.81C12.0359 15.374 12.5224 14.1527 13.4954 13.146C14.4684 12.1393 15.6452 11.6359 17.0257 11.6359C18.4062 11.6359 19.5804 12.1393 20.5482 13.146C21.5161 14.1527 22 15.374 22 16.81C22 18.2459 21.5161 19.4699 20.5482 20.4819C19.5804 21.494 18.4062 22 17.0257 22ZM19.2111 19.0517C19.2875 18.965 19.3067 18.861 19.2684 18.7397C19.2302 18.6184 19.153 18.5498 19.0368 18.5339C18.6052 18.4544 18.2045 18.2859 17.8346 18.0283C17.4647 17.7708 17.1597 17.4332 16.9197 17.0156C16.6798 16.5979 16.5461 16.1587 16.5189 15.6979C16.4916 15.237 16.5574 14.7903 16.7162 14.3576C16.7515 14.2365 16.7323 14.1277 16.6587 14.0312C16.585 13.9348 16.4909 13.9024 16.3763 13.9342C15.2569 14.143 14.4948 14.8013 14.0899 15.9089C13.6851 17.0166 13.8479 18.0452 14.5784 18.9947C15.1595 19.7544 15.9225 20.1444 16.8674 20.1648C17.8123 20.1852 18.5935 19.8142 19.2111 19.0517ZM8.891 22L8.49813 18.7984C8.36492 18.7449 8.23939 18.6807 8.12154 18.6058C8.00369 18.5309 7.8866 18.4523 7.77027 18.3701L4.91158 19.6302L2 14.3698L4.46584 12.4283C4.45919 12.3545 4.45587 12.2833 4.45587 12.2147V11.7876C4.45587 11.719 4.45919 11.647 4.46584 11.5717L2 9.63016L4.91158 4.3968L7.79621 5.64343C7.91253 5.56115 8.02685 5.48422 8.13918 5.41264C8.2515 5.34106 8.37116 5.27971 8.49813 5.22858L8.891 2H14.6882L15.0811 5.22858C15.2143 5.27971 15.3398 5.34106 15.4577 5.41264C15.5755 5.48422 15.6926 5.56115 15.8089 5.64343L18.6676 4.3968L21.5792 9.63016L20.3229 10.6154C19.821 10.323 19.2944 10.1019 18.743 9.95216C18.1917 9.80247 17.6232 9.72763 17.0374 9.72763C16.602 9.72763 16.1759 9.77793 15.7591 9.87855C15.3423 9.97915 14.9325 10.1141 14.5296 10.2835C14.2391 9.78573 13.8523 9.39076 13.369 9.09865C12.8858 8.80651 12.3616 8.66045 11.7966 8.66045C10.9098 8.66045 10.153 8.98645 9.52616 9.63846C8.89932 10.2905 8.5859 11.0776 8.5859 12C8.5859 12.6492 8.75325 13.2418 9.08795 13.7776C9.42264 14.3135 9.86918 14.7235 10.4276 15.0077C10.3445 15.2988 10.286 15.5971 10.2521 15.9028C10.2182 16.2085 10.2012 16.5106 10.2012 16.8092C10.2079 17.7986 10.3972 18.7443 10.7691 19.6462C11.141 20.5482 11.6759 21.3328 12.3739 22H8.891Z" fill="#1C1B1F"/>
</g>
</svg>
