<svg width="40" height="40" viewBox="0 0 40 40" fill="none" xmlns="http://www.w3.org/2000/svg">
  <rect opacity="0.2" width="40" height="40" rx="20" fill="#CAC9C5"/>
  <rect opacity="0.5" x="4" y="4" width="32" height="32" rx="16" fill="#CAC9C5"/>
  <mask id="mask0_78_16792" style="mask-type:alpha" maskUnits="userSpaceOnUse" x="11" y="11" width="18" height="18">
    <rect x="11" y="11" width="18" height="18" fill="#D9D9D9"/>
  </mask>
  <g mask="url(#mask0_78_16792)">
    <path d="M14 26C13.5875 26 13.2344 25.8531 12.9406 25.5594C12.6469 25.2656 12.5 24.9125 12.5 24.5V15.5C12.5 15.0875 12.6469 14.7344 12.9406 14.4406C13.2344 14.1469 13.5875 14 14 14H26C26.4125 14 26.7656 14.1469 27.0594 14.4406C27.3531 14.7344 27.5 15.0875 27.5 15.5V24.5C27.5 24.9125 27.3531 25.2656 27.0594 25.5594C26.7656 25.8531 26.4125 26 26 26H14ZM20 20.75L26 17V15.5L20 19.25L14 15.5V17L20 20.75Z" fill="#222222"/>
  </g>
</svg>
