<svg width="40" height="40" viewBox="0 0 40 40" fill="none" xmlns="http://www.w3.org/2000/svg">
  <rect opacity="0.3" width="40" height="40" rx="20" fill="#EFBCBE"/>
  <rect opacity="0.7" x="4" y="4" width="32" height="32" rx="16" fill="#EFBCBE"/>
  <mask id="mask0_78_16816" style="mask-type:alpha" maskUnits="userSpaceOnUse" x="11" y="11" width="18" height="18">
    <rect x="11" y="11" width="18" height="18" fill="#D9D9D9"/>
  </mask>
  <g mask="url(#mask0_78_16816)">
    <path d="M20 21.2057L25.8728 17.4557V15.6272L20 19.3772L14.1272 15.6272V17.4557L20 21.2057ZM25.25 28.25C24.2125 28.25 23.3281 27.8844 22.5969 27.1531C21.8656 26.4219 21.5 25.5375 21.5 24.5C21.5 23.4625 21.8656 22.5781 22.5969 21.8469C23.3281 21.1156 24.2125 20.75 25.25 20.75C26.2875 20.75 27.1719 21.1156 27.9031 21.8469C28.6344 22.5781 29 23.4625 29 24.5C29 25.5375 28.6344 26.4219 27.9031 27.1531C27.1719 27.8844 26.2875 28.25 25.25 28.25ZM23 24.9598H27.5V24.0402H23V24.9598ZM14.1272 26.3603C13.5734 26.3603 13.1036 26.1675 12.718 25.7819C12.3324 25.3963 12.1396 24.9266 12.1396 24.3728V15.6272C12.1396 15.0734 12.3324 14.6036 12.718 14.218C13.1036 13.8324 13.5734 13.6396 14.1272 13.6396H25.8728C26.4266 13.6396 26.8963 13.8324 27.2819 14.218C27.6675 14.6036 27.8603 15.0734 27.8603 15.6272V19.987C27.4679 19.7413 27.0524 19.557 26.6139 19.4342C26.1753 19.3114 25.7206 19.25 25.25 19.25C23.8087 19.25 22.5787 19.7452 21.5599 20.7357C20.5412 21.7262 20.0212 22.9386 20 24.3728C19.9859 24.7076 20.0117 25.0424 20.0774 25.3772C20.1432 25.712 20.2383 26.0397 20.3628 26.3603H14.1272Z" fill="#CA2027"/>
  </g>
</svg>
