<svg width="40" height="40" viewBox="0 0 40 40" fill="none" xmlns="http://www.w3.org/2000/svg">
  <rect opacity="0.3" width="40" height="40" rx="20" fill="#B9E3B2"/>
  <rect opacity="0.7" x="4" y="4" width="32" height="32" rx="16" fill="#B9E3B2"/>
  <mask id="mask0_78_16800" style="mask-type:alpha" maskUnits="userSpaceOnUse" x="11" y="11" width="18" height="18">
    <rect x="11" y="11" width="18" height="18" fill="#D9D9D9"/>
  </mask>
  <g mask="url(#mask0_78_16800)">
    <path d="M22.9625 27.7225L19.616 24.3761L20.9522 23.0399L22.9625 25.0396L27.0728 20.9399L28.409 22.2761L22.9625 27.7225ZM14.1272 26.3603C13.5734 26.3603 13.1036 26.1675 12.718 25.7819C12.3324 25.3963 12.1396 24.9266 12.1396 24.3728V15.6272C12.1396 15.0734 12.3324 14.6036 12.718 14.218C13.1036 13.8324 13.5734 13.6396 14.1272 13.6396H25.8728C26.4266 13.6396 26.8963 13.8324 27.2819 14.218C27.6675 14.6036 27.8603 15.0734 27.8603 15.6272V18.0418L22.9706 22.9209L20.9522 20.9024L17.4973 24.3679L19.4897 26.3603H14.1272ZM20 20.9196L25.8728 17.4557V15.6272L20 19.091L14.1272 15.6272V17.4557L20 20.9196Z" fill="#16A000"/>
  </g>
</svg>
