<svg width="40" height="40" viewBox="0 0 40 40" fill="none" xmlns="http://www.w3.org/2000/svg">
  <rect opacity="0.3" width="40" height="40" rx="20" fill="#FFDDBE"/>
  <rect opacity="0.7" x="4" y="4" width="32" height="32" rx="16" fill="#FFDDBE"/>
  <mask id="mask0_78_16808" style="mask-type:alpha" maskUnits="userSpaceOnUse" x="11" y="11" width="18" height="18">
    <rect x="11" y="11" width="18" height="18" fill="#D9D9D9"/>
  </mask>
  <g mask="url(#mask0_78_16808)">
    <path d="M25.409 28.6528L24.2212 27.4543L25.2964 26.3603H22.303V24.6484H25.2964L24.2024 23.5543L25.409 22.356L28.5573 25.5043L25.409 28.6528ZM14.1272 26.3603C13.5734 26.3603 13.1036 26.1675 12.718 25.7819C12.3324 25.3963 12.1396 24.9266 12.1396 24.3728V15.6272C12.1396 15.0734 12.3324 14.6036 12.718 14.218C13.1036 13.8324 13.5734 13.6396 14.1272 13.6396H25.8728C26.4266 13.6396 26.8963 13.8324 27.2819 14.218C27.6675 14.6036 27.8603 15.0734 27.8603 15.6272V21.8163C27.4946 21.5881 27.1069 21.4151 26.6974 21.2974C26.2879 21.1798 25.869 21.1209 25.4407 21.1209C24.1554 21.1209 23.0611 21.569 22.1579 22.4652C21.2546 23.3614 20.803 24.4522 20.803 25.7375V26.3603H14.1272ZM20 21.2057L25.8728 17.4557V15.6272L20 19.3772L14.1272 15.6272V17.4557L20 21.2057Z" fill="#FF8E26"/>
  </g>
</svg>
