<svg width="25" height="25" viewBox="0 0 25 25" fill="none" xmlns="http://www.w3.org/2000/svg">
  <mask id="mask0_216_15651" style="mask-type:alpha" maskUnits="userSpaceOnUse" x="0" y="0" width="25" height="25">
    <rect x="0.75" y="0.5" width="24" height="24" fill="#D9D9D9"/>
  </mask>
  <g mask="url(#mask0_216_15651)">
    <path d="M4.91956 21.9804C4.18114 21.9804 3.55486 21.7234 3.04073 21.2092C2.5266 20.6951 2.26953 20.0688 2.26953 19.3304V5.66956C2.26953 4.93114 2.5266 4.30487 3.04073 3.79073C3.55486 3.2766 4.18114 3.01953 4.91956 3.01953H20.5804C21.3188 3.01953 21.9451 3.2766 22.4592 3.79073C22.9734 4.30487 23.2304 4.93114 23.2304 5.66956V19.3304C23.2304 20.0688 22.9734 20.6951 22.4592 21.2092C21.9451 21.7234 21.3188 21.9804 20.5804 21.9804H4.91956ZM6.83476 17.4152H18.6652V15.4152H6.83476V17.4152ZM6.83476 13.5H10.8348V7.58476H6.83476V13.5ZM12.75 13.5H18.6652V11.5H12.75V13.5ZM12.75 9.58476H18.6652V7.58476H12.75V9.58476Z" fill="#F9B225"/>
  </g>
</svg>
