<svg width="24" height="24" viewBox="0 0 24 24" fill="none" xmlns="http://www.w3.org/2000/svg">
  <path fill-rule="evenodd" clip-rule="evenodd" d="M3.28184 16.4545C3.4018 16.2884 3.67735 16.0204 3.67735 16.0204C4.65248 14.9799 7.07783 13.4129 8.30832 12.9096C8.30832 12.8991 9.03997 12.6007 9.38797 12.589H9.43429C9.96758 12.589 10.4664 12.8874 10.7218 13.3672C10.8271 13.565 10.925 14.0462 10.9722 14.2783C10.9879 14.3552 10.998 14.4047 11.0009 14.4077C11.1054 15.0935 11.1743 16.1456 11.1743 17.3007C11.1743 18.5131 11.1054 19.6109 10.9772 20.2862C10.9772 20.2979 10.8501 20.9146 10.7681 21.1206C10.641 21.4179 10.4082 21.6695 10.1184 21.8298C9.88682 21.9445 9.64215 22.0007 9.38797 22.0007C9.12073 21.9902 8.62188 21.8181 8.42472 21.7385C7.12415 21.2353 4.6406 19.5887 3.68923 18.5822C3.58312 18.4776 3.47196 18.3587 3.39462 18.2759C3.35335 18.2317 3.32171 18.1978 3.30559 18.1819C3.10843 17.9303 3.00391 17.6214 3.00391 17.289C3.00391 16.9929 3.09655 16.6956 3.28184 16.4545ZM10.1655 5.76953C10.6893 5.76953 11.1134 6.18734 11.1134 6.70345C11.1134 7.21956 10.6893 7.63737 10.1655 7.63737L5.58671 7.89484C4.91919 7.89484 4.37876 7.36117 4.37876 6.70345C4.37876 6.04573 4.91919 5.51323 5.58671 5.51323L10.1655 5.76953ZM13.239 2.8788C13.3673 2.58154 13.5989 2.32992 13.8887 2.16959C14.1203 2.0549 14.365 1.99872 14.6203 1.99872C14.8864 2.00925 15.3864 2.18129 15.5836 2.26204C16.883 2.76411 19.3666 4.41192 20.3192 5.41723C20.4228 5.52002 20.5317 5.63676 20.6087 5.71934L20.6088 5.71936L20.6088 5.71938L20.609 5.71959L20.609 5.7196C20.652 5.76571 20.6851 5.80113 20.7017 5.81748C20.8988 6.07027 21.0034 6.37806 21.0034 6.70926C21.0034 7.0077 20.9107 7.30496 20.7242 7.54487C20.6055 7.71106 20.3299 7.97906 20.3299 7.97906C19.3559 9.02065 16.9293 10.5865 15.6988 11.0898C15.6988 11.1015 14.9684 11.3987 14.6203 11.4104H14.574C14.0395 11.4104 13.5407 11.1132 13.2853 10.6322C13.1811 10.4348 13.0829 9.9552 13.0353 9.72254L13.0353 9.72252L13.0353 9.72248C13.0194 9.64483 13.0091 9.5947 13.0062 9.59177C12.9017 8.90596 12.8328 7.85384 12.8328 6.69873C12.8328 5.48628 12.9017 4.38852 13.0299 3.71324C13.0299 3.70271 13.157 3.08478 13.239 2.8788ZM12.8945 17.2938C12.8945 17.8099 13.3185 18.2277 13.8423 18.2277L18.421 18.4852C19.0885 18.4852 19.6289 17.9515 19.6289 17.2938C19.6289 16.6361 19.0885 16.1036 18.421 16.1036L13.8423 16.3599C13.3185 16.3599 12.8945 16.7777 12.8945 17.2938Z" fill="currentColor"/>
</svg>
