<svg width="24" height="24" viewBox="0 0 24 24" fill="none" xmlns="http://www.w3.org/2000/svg">
  <path fill-rule="evenodd" clip-rule="evenodd" d="M9.25 3H14.75C18.6391 3 20.5836 3 21.7918 4.12973C22.4907 4.78322 22.7853 5.66709 22.9095 7H1.09051C1.21471 5.66709 1.50932 4.78322 2.20818 4.12973C3.41637 3 5.36091 3 9.25 3ZM1.00607 9H22.9939C23 9.52186 23 10.0914 23 10.7143V10.7143V13.2857V13.2857C23 14.0473 23 14.7292 22.9889 15.3417C22.2563 14.5185 21.1887 14 20 14C17.7909 14 16 15.7909 16 18C16 19.185 16.5153 20.2496 17.334 20.982C16.5828 21 15.7279 21 14.75 21H9.25C5.36091 21 3.41637 21 2.20818 19.8703C1 18.7405 1 16.9223 1 13.2857V10.7143C1 10.0914 1 9.52187 1.00607 9ZM4.83333 15.9999C4.3731 15.9999 4 16.4476 4 16.9999C4 17.5522 4.3731 17.9999 4.83333 17.9999H8.16667C8.6269 17.9999 9 17.5522 9 16.9999C9 16.4476 8.6269 15.9999 8.16667 15.9999H4.83333Z" fill="currentColor"/>
  <path d="M20.0866 18.6737H19.3805C19.3824 18.4944 19.3972 18.3408 19.4248 18.2127C19.4543 18.0847 19.5026 17.9695 19.5695 17.8671C19.6365 17.7627 19.7271 17.6563 19.8414 17.548C19.932 17.4633 20.0127 17.3835 20.0836 17.3087C20.1565 17.2318 20.2136 17.1521 20.255 17.0693C20.2964 16.9846 20.317 16.8891 20.317 16.7827C20.317 16.6626 20.2973 16.5621 20.258 16.4814C20.2205 16.4006 20.1644 16.3396 20.0895 16.2982C20.0167 16.2549 19.9251 16.2332 19.8148 16.2332C19.7242 16.2332 19.6385 16.2519 19.5577 16.2893C19.477 16.3268 19.412 16.3849 19.3627 16.4637C19.3135 16.5405 19.2869 16.6409 19.283 16.765H18.5C18.5059 16.507 18.567 16.2923 18.6832 16.1209C18.7994 15.9476 18.956 15.8186 19.153 15.7339C19.3499 15.6472 19.5705 15.6039 19.8148 15.6039C20.0846 15.6039 20.3151 15.6492 20.5061 15.7398C20.6992 15.8284 20.8459 15.9584 20.9464 16.1298C21.0488 16.3012 21.1 16.508 21.1 16.7502C21.1 16.9236 21.0665 17.0792 20.9995 17.2171C20.9326 17.353 20.8439 17.48 20.7336 17.5982C20.6233 17.7164 20.5042 17.8355 20.3761 17.9557C20.2639 18.0562 20.188 18.1635 20.1486 18.2777C20.1092 18.392 20.0886 18.524 20.0866 18.6737ZM19.3066 19.5925C19.3066 19.4743 19.346 19.3758 19.4248 19.2971C19.5055 19.2183 19.6139 19.1789 19.7498 19.1789C19.8857 19.1789 19.993 19.2183 20.0718 19.2971C20.1526 19.3758 20.193 19.4743 20.193 19.5925C20.193 19.7068 20.1526 19.8033 20.0718 19.8821C19.993 19.9608 19.8857 20.0002 19.7498 20.0002C19.6139 20.0002 19.5055 19.9608 19.4248 19.8821C19.346 19.8033 19.3066 19.7068 19.3066 19.5925Z" fill="currentColor"/>
</svg>
