<svg viewBox="0 0 24 24" fill="none" xmlns="http://www.w3.org/2000/svg">
  <path d="M12 4C11.8667 4 11.7417 4.021 11.625 4.063C11.5083 4.10433 11.4 4.175 11.3 4.275L7.7 7.875C7.51667 8.05833 7.425 8.29167 7.425 8.575C7.425 8.85833 7.51667 9.09167 7.7 9.275C7.88333 9.45833 8.12067 9.55433 8.412 9.563C8.704 9.571 8.94167 9.48333 9.125 9.3L11 7.425V14.575C11 14.8583 11.096 15.096 11.288 15.288C11.4793 15.4793 11.7167 15.575 12 15.575C12.2833 15.575 12.521 15.4793 12.713 15.288C12.9043 15.096 13 14.8583 13 14.575V7.425L14.875 9.3C15.0583 9.48333 15.296 9.571 15.588 9.563C15.8793 9.55433 16.1167 9.45833 16.3 9.275C16.4833 9.09167 16.575 8.85833 16.575 8.575C16.575 8.29167 16.4833 8.05833 16.3 7.875L12.7 4.275C12.6 4.175 12.4917 4.10433 12.375 4.063C12.2583 4.021 12.1333 4 12 4ZM6 20C5.45 20 4.97933 19.8043 4.588 19.413C4.196 19.021 4 18.55 4 18V16C4 15.7167 4.09567 15.479 4.287 15.287C4.479 15.0957 4.71667 15 5 15C5.28333 15 5.521 15.0957 5.713 15.287C5.90433 15.479 6 15.7167 6 16V18H18V16C18 15.7167 18.096 15.479 18.288 15.287C18.4793 15.0957 18.7167 15 19 15C19.2833 15 19.5207 15.0957 19.712 15.287C19.904 15.479 20 15.7167 20 16V18C20 18.55 19.8043 19.021 19.413 19.413C19.021 19.8043 18.55 20 18 20H6Z" fill="currentColor"/>
</svg>
