<svg xmlns="http://www.w3.org/2000/svg" width="24" height="24" viewBox="0 0 24 24" fill="none">
<path fill-rule="evenodd" clip-rule="evenodd" d="M12.0003 4C10.3435 4 9.00033 5.34315 9.00033 7C9.00033 8.65685 10.3435 10 12.0003 10C13.6572 10 15.0003 8.65685 15.0003 7C15.0003 5.34315 13.6572 4 12.0003 4ZM7.00033 7C7.00033 4.23858 9.2389 2 12.0003 2C14.7617 2 17.0003 4.23858 17.0003 7C17.0003 9.76142 14.7617 12 12.0003 12C9.2389 12 7.00033 9.76142 7.00033 7Z" fill="currentColor"/>
<path fill-rule="evenodd" clip-rule="evenodd" d="M11.9988 16C9.0627 16 6.54645 17.808 5.50728 20.3752C5.30006 20.8871 4.71706 21.1342 4.20513 20.9269C3.69319 20.7197 3.44618 20.1367 3.6534 19.6248C4.98778 16.3283 8.2202 14 11.9988 14C15.7775 14 19.0099 16.3283 20.3442 19.6248C20.5515 20.1367 20.3045 20.7197 19.7925 20.9269C19.2806 21.1342 18.6976 20.8871 18.4904 20.3752C17.4512 17.808 14.935 16 11.9988 16Z" fill="currentColor"/>
</svg>
